<svg width="326" height="328" viewBox="0 0 326 328" fill="none" xmlns="http://www.w3.org/2000/svg">
<path d="M20.39 24.3713C15.7868 26.2669 11.906 29.7144 8.52921 33.5145C2.96001 39.7922 -1.65999 48.5033 0.860013 56.6855C2.05281 60.5561 6.00921 64.1534 9.53721 62.4782C12.2672 61.1821 13.1072 57.5495 13.1912 54.4107C13.2752 51.2719 12.9896 47.8597 14.6612 45.2411C16.7612 41.9435 21.5072 41.2911 24.8084 43.2308C28.1096 45.1705 30.0248 49.0852 30.5372 53.0264C31.1132 57.5718 30.079 62.1809 27.6308 65.9786C25.5224 69.232 22.406 71.8154 21.0116 75.4656C19.13 80.3679 20.7848 85.8961 22.448 90.8865C22.5243 91.2129 22.6741 91.5153 22.8848 91.7682C23.126 91.9737 23.4168 92.1049 23.7248 92.1473C24.5521 92.2663 25.394 92.199 26.1945 91.9499C26.9951 91.7007 27.7359 91.2755 28.3677 90.7024C28.9994 90.1294 29.5077 89.4217 29.8586 88.6264C30.2095 87.8311 30.395 86.9665 30.4028 86.0901C30.302 84.0269 29.1764 82.1313 29.0924 80.0681C28.9328 75.977 32.6372 73.0939 35.342 70.149C42.7256 62.0815 43.8428 49.8259 43.5236 38.646C43.4312 35.5336 43.238 32.3154 41.9192 29.5292C38.618 22.458 26.4716 21.8144 20.39 24.3713Z" fill="#6A6599"/>
<path d="M28.8146 96.0444C27.0894 96.6615 25.6521 97.9439 24.7943 99.6319C23.9364 101.32 23.722 103.287 24.1946 105.135C24.7848 106.945 25.9688 108.476 27.5351 109.455C29.1015 110.434 30.9483 110.796 32.7458 110.478C33.8654 110.243 34.9224 109.753 35.8425 109.043C36.7625 108.333 37.5233 107.421 38.0714 106.369C38.7937 104.972 39.087 103.376 38.9111 101.797C38.7351 100.219 38.0986 98.7361 37.0886 97.5521C35.0138 95.3214 28.8146 96.0444 28.8146 96.0444Z" fill="#6A6599"/>
<path d="M305.021 272.863C302.4 257.47 301.123 241.858 301.207 226.221C301.207 218.33 302.24 203.808 311.9 201.948C321.3 200.141 320.914 212.837 320.687 219.344C320.359 228.778 304.676 270.879 305.021 272.863Z" fill="#6A6599"/>
<path d="M307.314 279.441C308.562 280.616 309.338 282.246 309.483 284C309.628 285.754 309.132 287.5 308.095 288.883C306.972 290.193 305.441 291.04 303.777 291.273C302.113 291.505 300.425 291.108 299.015 290.153C298.148 289.534 297.421 288.723 296.885 287.777C296.35 286.831 296.018 285.773 295.915 284.678C295.795 283.228 296.101 281.775 296.792 280.514C297.483 279.253 298.525 278.244 299.779 277.624C302.316 276.478 307.314 279.441 307.314 279.441Z" fill="#6A6599"/>
<path d="M162.868 327.89C252.817 327.89 325.735 323.421 325.735 317.909C325.735 312.397 252.817 307.928 162.868 307.928C72.9183 307.928 0 312.397 0 317.909C0 323.421 72.9183 327.89 162.868 327.89Z" fill="white" fill-opacity="0.7"/>
<path d="M160.348 34.8754L275.176 11.0696C275.901 10.9113 276.649 10.9132 277.373 11.0751C278.097 11.2369 278.781 11.5552 279.382 12.0097C279.982 12.4642 280.486 13.0449 280.861 13.7149C281.236 14.3849 281.474 15.1294 281.56 15.9013L302.022 224.431C302.089 225.198 302.002 225.97 301.769 226.7C301.536 227.43 301.16 228.1 300.666 228.669C300.172 229.238 299.571 229.693 298.901 230.005C298.23 230.316 297.506 230.478 296.772 230.48L160.348 232.446V34.8754Z" fill="#1E5799"/>
<path d="M159.936 35.4485C159.936 35.4485 237.687 17.0563 271.513 19.19L287.91 220.64C287.91 220.64 262.173 213.587 237.51 218.524C212.151 223.594 159.928 232.446 159.928 232.446L159.936 35.4485Z" fill="#1E5799"/>
<path opacity="0.7" d="M159.936 35.4485C159.936 35.4485 237.687 17.0563 271.513 19.19L287.91 220.64C287.91 220.64 262.173 213.587 237.51 218.524C212.151 223.594 159.928 232.446 159.928 232.446L159.936 35.4485Z" fill="white"/>
<path d="M170.193 31.0577C170.193 31.0577 212.47 12.6743 239.241 11.0784L266.188 9.47375L281.518 213.675C281.518 213.675 256.41 202.971 230.664 209.601C204.918 216.232 171.814 227.756 160.499 232.032V34.8049L170.193 31.0577Z" fill="#1E5799"/>
<path opacity="0.8" d="M170.335 31.0577C170.335 31.0577 212.621 12.6743 239.392 11.0784L266.347 9.47375L281.677 213.675C281.677 213.675 256.561 202.971 230.824 209.601C205.086 216.232 171.973 227.756 160.658 232.032V34.8049L170.335 31.0577Z" fill="white"/>
<path d="M160.507 34.8754L48.2245 11.0696C47.5079 10.918 46.7691 10.9255 46.0555 11.0914C45.3418 11.2573 44.6691 11.5781 44.0806 12.0331C43.492 12.4881 43.0007 13.0673 42.638 13.7335C42.2754 14.3996 42.0495 15.1381 41.9749 15.9013L21.9745 224.449C21.9023 225.207 21.9807 225.972 22.2048 226.696C22.4288 227.42 22.7935 228.087 23.2759 228.656C23.7583 229.224 24.3479 229.681 25.0073 229.998C25.6667 230.316 26.3817 230.485 27.1069 230.498L160.516 232.446L160.507 34.8754Z" fill="#1E5799"/>
<path d="M160.507 34.8754C160.507 34.8754 88.1076 7.06667 54.5076 4.97705L37.4724 219.706C37.4724 219.706 63.6636 212.396 88.0404 217.836C112.417 223.276 160.516 232.446 160.516 232.446L160.507 34.8754Z" fill="#1E5799"/>
<path opacity="0.6" d="M160.507 34.8754C160.507 34.8754 88.1076 7.06667 54.5076 4.97705L37.4724 219.706C37.4724 219.706 63.6636 212.396 88.0404 217.836C112.417 223.276 160.516 232.446 160.516 232.446L160.507 34.8754Z" fill="white"/>
<path d="M152.326 30.2378C152.326 30.2378 112.191 8.05432 86.9069 4.08668L61.5473 0.110229L47.1917 201.56C47.1917 201.56 70.7537 193.484 95.0045 202.724C119.255 211.964 150.78 226.971 161.558 232.446V34.8755L152.326 30.2378Z" fill="#1E5799"/>
<path opacity="0.7" d="M152.326 30.2378C152.326 30.2378 112.191 8.05432 86.9069 4.08668L61.5473 0.110229L47.1917 201.56C47.1917 201.56 70.7537 193.484 95.0045 202.724C119.255 211.964 150.78 226.971 161.558 232.446V34.8755L152.326 30.2378Z" fill="white"/>
<path d="M179.937 94.2313V93.6141C179.937 87.6362 179.794 81.5613 179.643 75.6892C179.508 70.4607 179.366 65.0559 179.349 59.7393V59.4307L179.626 59.3249C190.392 55.1311 201.381 51.5983 212.537 48.7445L213.033 48.6211V49.1589C213.335 55.5865 213.537 62.1199 213.722 68.4416C213.864 73.1411 214.007 78.0081 214.2 82.7869V83.1395L213.873 83.2277C201.617 86.4724 190.109 90.5193 180.474 94.055L179.937 94.2313ZM180.189 60.0479C180.189 65.2587 180.348 70.5401 180.483 75.6628C180.626 81.3409 180.777 87.2042 180.777 92.9881C190.235 89.5318 201.432 85.6083 213.36 82.4077C213.176 77.7435 213.041 73 212.898 68.4152C212.714 62.2433 212.529 55.9304 212.235 49.6791C201.372 52.4947 190.673 55.9625 180.189 60.0655V60.0479Z" fill="#1E5799"/>
<path d="M198.988 67.0661C198.481 67.2406 198.036 67.5741 197.715 68.0218C197.393 68.4696 197.21 69.0099 197.191 69.5701C197.191 70.5576 197.241 71.0602 197.266 72.0565C197.871 71.7371 198.399 71.2791 198.812 70.7163C198.96 70.4484 199.038 70.1443 199.039 69.8346C199.049 69.6944 199.104 69.562 199.196 69.4593C199.288 69.3567 199.41 69.29 199.543 69.2704L201.483 68.997C201.58 68.9671 201.683 68.9611 201.782 68.9797C201.882 68.9982 201.976 69.0408 202.058 69.104C202.139 69.1672 202.205 69.2494 202.251 69.344C202.297 69.4387 202.322 69.5432 202.323 69.6495C202.323 70.2314 202.323 70.5312 202.323 71.1043C202.297 71.4053 202.181 71.69 201.991 71.9167C201.8 72.1435 201.546 72.3006 201.265 72.3651C199.517 72.7619 198.745 72.9382 197.191 73.2997C197.163 73.8451 197.342 74.3798 197.688 74.7877C198.034 75.1955 198.519 75.4434 199.039 75.4775C201.172 75.645 202.399 75.7067 204.835 75.8654C208.371 75.4334 210.295 75.1954 213.512 75.0807C213.436 72.612 213.403 71.4041 213.335 69.0235C211.487 65.5496 210.496 63.9802 208.497 60.7884C208.232 60.3094 207.859 59.906 207.411 59.6139C206.963 59.3217 206.453 59.1498 205.927 59.1132C205.031 58.2335 203.852 57.7422 202.625 57.7378H202.508C201.352 57.3274 200.111 57.2602 198.921 57.5438C198.796 57.5802 198.681 57.6495 198.589 57.7451C198.496 57.8408 198.428 57.9596 198.392 58.0904C198.324 58.2334 198.286 58.3896 198.28 58.5489C198.273 58.7083 198.298 58.8673 198.354 59.0159C198.409 59.1644 198.493 59.2992 198.601 59.4116C198.709 59.524 198.838 59.6116 198.98 59.6687C199.769 59.9685 201.273 61.7583 202.273 62.9662C202.889 63.7015 203.381 64.5425 203.726 65.4526C201.743 66.1227 200.761 66.4577 198.988 67.0661Z" fill="#263238"/>
<path d="M193.864 67.604C193.792 67.6375 193.711 67.6407 193.638 67.6127C193.564 67.5847 193.503 67.5279 193.469 67.4541C193.168 66.5666 192.737 65.7336 192.192 64.9854C192.146 64.8879 192.135 64.7761 192.161 64.6706C192.187 64.5652 192.249 64.4734 192.335 64.4123C192.407 64.3363 192.506 64.2937 192.608 64.2937C192.71 64.2937 192.808 64.3363 192.881 64.4123C193.452 65.2175 193.902 66.1095 194.217 67.0573C194.239 67.1648 194.225 67.277 194.178 67.3751C194.13 67.4731 194.052 67.5509 193.956 67.5952L193.864 67.604Z" fill="#263238"/>
<path d="M193.948 72.9824C193.827 73.7814 193.414 74.4996 192.797 74.9838C191.713 75.8655 190.277 75.9537 189.706 75.1161C189.638 75.0142 189.582 74.9048 189.538 74.7898C189.42 74.2566 189.462 73.6979 189.659 73.191C189.856 72.684 190.198 72.2538 190.638 71.9596C191.195 71.4738 191.906 71.2252 192.629 71.263C192.836 71.2733 193.038 71.3316 193.221 71.4338C193.404 71.5359 193.563 71.6794 193.687 71.8538C193.729 71.9091 193.765 71.9681 193.797 72.0301C193.93 72.3266 193.983 72.6564 193.948 72.9824Z" fill="white"/>
<path d="M193.948 72.9823C193.827 73.7814 193.414 74.4996 192.797 74.9838C191.713 75.8655 190.277 75.9537 189.706 75.1161C189.638 75.0142 189.582 74.9048 189.538 74.7898C189.599 74.3858 189.736 73.9986 189.941 73.6505C190.145 73.3024 190.414 73.0004 190.73 72.7619C191.839 71.8802 193.2 71.8185 193.78 72.6561C193.849 72.7569 193.905 72.8665 193.948 72.9823Z" fill="#263238"/>
<path d="M198.392 72.4975C198.286 73.2594 197.911 73.9518 197.342 74.4372C196.392 75.2572 195.124 75.2483 194.561 74.3931C194.496 74.291 194.443 74.1816 194.402 74.0669C194.301 73.6839 194.294 73.2806 194.38 72.8939C194.467 72.5073 194.645 72.1496 194.897 71.8538C195.236 71.397 195.686 71.0439 196.199 70.831C196.533 70.6497 196.919 70.6025 197.284 70.6982C197.649 70.794 197.968 71.0262 198.182 71.3512C198.373 71.6972 198.448 72.1014 198.392 72.4975Z" fill="white"/>
<path d="M198.391 72.4974C198.286 73.2593 197.911 73.9517 197.341 74.4371C196.392 75.2571 195.124 75.2483 194.561 74.393C194.496 74.2909 194.443 74.1815 194.401 74.0668C194.514 73.2808 194.915 72.5722 195.519 72.0918C196.543 71.2101 197.736 71.2806 198.249 72.1623C198.308 72.268 198.356 72.3804 198.391 72.4974Z" fill="#263238"/>
<path d="M196.686 68.662C196.626 69.0761 196.484 69.4726 196.27 69.8262C196.056 70.1799 195.774 70.483 195.443 70.7164C194.368 71.5011 193.049 71.4305 192.545 70.5312C192.509 70.4662 192.478 70.3984 192.453 70.3284C192.33 69.7717 192.382 69.1882 192.602 68.6653C192.821 68.1424 193.196 67.7082 193.671 67.4276C194.796 66.6165 196.065 66.7311 196.527 67.6569C196.673 67.9681 196.728 68.3178 196.686 68.662Z" fill="white"/>
<path d="M195.443 70.6987C194.368 71.4834 193.049 71.4129 192.545 70.5136C192.509 70.4486 192.478 70.3808 192.452 70.3108C192.52 69.8845 192.671 69.4777 192.897 69.1164C193.122 68.755 193.417 68.4471 193.763 68.2123C194.88 67.41 196.14 67.5246 196.602 68.4416C196.634 68.5075 196.662 68.5752 196.686 68.6444C196.626 69.0585 196.484 69.455 196.27 69.8086C196.056 70.1622 195.774 70.4654 195.443 70.6987Z" fill="#263238"/>
<path d="M192.99 67.2161C192.994 67.2483 192.994 67.2809 192.99 67.3131C192.848 68.6444 190.538 70.302 187.707 71.1308C186.325 71.5352 184.851 71.4005 183.557 70.7517C183.231 70.5965 182.924 70.4011 182.642 70.1698C182.642 70.1698 184.994 66.9427 187.875 66.1404C188.265 66.0297 188.66 65.9414 189.059 65.8759C189.446 65.8166 189.836 65.7813 190.227 65.7701C191.898 65.726 193.016 66.2638 192.99 67.2161Z" fill="#1E5799"/>
<g opacity="0.2">
<path d="M187.698 71.1307C186.317 71.5352 184.843 71.4005 183.549 70.7516C184.831 69.1383 186.506 67.9196 188.395 67.2248C190.42 66.6517 192.159 66.7311 192.982 67.2865C192.839 68.662 190.529 70.3019 187.698 71.1307Z" fill="#E8EDF1"/>
</g>
<path d="M201.852 57.729C201.813 58.1747 201.743 58.6167 201.642 59.0515C201.288 60.7727 200.518 62.3695 199.408 63.6893C197.409 65.9376 195.317 67.1103 194.301 66.643C194.226 66.616 194.158 66.574 194.099 66.5195C193.477 65.9905 193.78 64.5886 194.763 62.9927C195.019 62.5498 195.299 62.1229 195.603 61.7143C195.846 61.4057 196.098 61.0883 196.375 60.7709C197.87 59.2053 199.778 58.1457 201.852 57.729Z" fill="#1E5799"/>
<g opacity="0.2">
<path d="M201.642 59.0515C201.288 60.7726 200.519 62.3695 199.408 63.6892C197.409 65.9376 195.317 67.1102 194.301 66.6429C194.351 65.4967 195.326 63.6628 196.888 61.8906C198.193 60.5023 199.839 59.5198 201.642 59.0515Z" fill="#E8EDF1"/>
</g>
<path d="M192.268 64.7297C191.94 65.6114 190.294 66.2727 188.589 66.1492C188.056 66.0675 187.551 65.8451 187.122 65.5027C186.693 65.1604 186.354 64.7094 186.136 64.1919C186.136 64.1919 188.102 62.5872 189.798 62.7547C191.495 62.9222 192.612 63.8127 192.268 64.7297Z" fill="#1E5799"/>
<path d="M192.696 64.4652C193.469 64.6856 194.821 63.46 195.745 61.6525C196.285 60.4522 196.399 59.0887 196.065 57.8083C194.794 58.4699 193.724 59.4896 192.973 60.7532C192.041 62.6136 191.915 64.2536 192.696 64.4652Z" fill="#1E5799"/>
<path d="M203.776 77.2586C203.409 77.7378 203.02 78.1969 202.608 78.634C201.407 79.9301 199.341 81.8081 197.568 82.3195C194.788 83.113 191.739 82.778 191.537 81.1116C191.533 81.0558 191.533 80.9998 191.537 80.9441C191.537 79.1278 194.578 76.6414 197.593 75.7509C200.609 74.8603 203.776 77.2586 203.776 77.2586Z" fill="#1E5799"/>
<g opacity="0.2">
<path d="M202.608 78.634C201.407 79.9301 199.341 81.8081 197.568 82.3195C194.788 83.113 191.739 82.778 191.537 81.1116C192.992 79.3269 194.918 78.0352 197.073 77.3996C199.349 76.7031 201.609 77.9551 202.608 78.634Z" fill="#E8EDF1"/>
</g>
<path d="M190.285 81.0764C190.242 81.1497 190.191 81.2177 190.134 81.2792C188.832 82.8927 185.632 83.1395 183.061 81.7729C181.381 80.8912 180.802 78.9162 180.541 77.6025C180.452 77.1523 180.399 76.6952 180.382 76.2358C180.382 76.2358 184.54 74.2961 187.345 75.5658C190.151 76.8354 191.486 79.2865 190.285 81.0764Z" fill="#1E5799"/>
<g opacity="0.2">
<path d="M190.135 81.2791C188.833 82.8927 185.632 83.1395 183.062 81.7729C181.382 80.8912 180.802 78.9162 180.542 77.6025C181.802 77.1352 184.675 76.2887 186.749 77.241C188.824 78.1932 190.084 79.7626 190.135 81.2791Z" fill="#E8EDF1"/>
</g>
<path d="M180.382 90.1578C180.18 90.2195 180.021 90.0696 180.021 89.8228C180.019 89.7046 180.051 89.5886 180.114 89.4907C180.178 89.3929 180.268 89.3179 180.373 89.2761C187.194 87.0807 193.923 78.105 194.04 71.2366C194.054 71.1254 194.099 71.021 194.17 70.9363C194.24 70.8517 194.332 70.7905 194.435 70.7605C194.645 70.6987 194.813 70.8222 194.805 71.025C194.435 79.4275 187.883 87.1248 180.382 90.1578Z" fill="#263238"/>
<path d="M180.315 132.585V131.986C180.256 123.072 180.147 114.008 180.037 105.244L179.953 98.3753L180.239 98.2695C193.335 93.4907 203.759 90.1755 213.965 87.5128L214.452 87.3805V87.9183C215.065 99.7331 215.485 111.724 215.813 121.934V122.305L215.477 122.384C203.759 125.205 192.419 128.485 180.819 132.409L180.315 132.585ZM180.802 98.9924L180.877 105.235C180.978 113.805 181.087 122.657 181.146 131.386C192.469 127.568 203.557 124.332 214.99 121.608C214.671 111.645 214.267 99.9976 213.671 88.5003C203.709 91.1101 193.528 94.3635 180.802 98.9924Z" fill="#1E5799"/>
<path d="M184.221 131.139C186.8 128.08 188.211 126.44 191.176 122.992C196.023 121.502 198.291 121.035 202.819 119.889C204.557 117.543 205.481 116.194 207.245 113.902C207.439 113.654 207.7 113.473 207.993 113.382C208.833 113.117 209.413 113.928 208.951 114.81C207.422 117.711 206.624 119.545 205.078 122.34C201.416 123.751 199.887 124.218 196.115 125.752L193.713 127.736C189.748 129.076 187.724 129.869 184.221 131.139Z" fill="#263238"/>
<path d="M204.406 102.449C204.851 108.559 205.002 111.662 205.204 119.201C199.727 120.806 197.249 121.299 191.529 123.195C191.377 115.974 191.604 112.438 191.487 106.355C197.005 104.353 198.988 103.93 204.406 102.449Z" fill="#1E5799"/>
<path d="M193.604 112.861C193.604 113.292 193.678 113.719 193.822 114.122L191.571 114.872C191.571 113.761 191.571 113.223 191.571 112.156C192.47 111.847 192.923 111.689 193.822 111.398C193.675 111.87 193.601 112.364 193.604 112.861Z" fill="#263238"/>
<path d="M204.792 108.286C204.851 109.335 204.885 109.873 204.935 110.931L202.827 111.521C202.938 111.073 202.983 110.609 202.961 110.146C202.938 109.696 202.838 109.254 202.667 108.841L204.792 108.286Z" fill="#263238"/>
<path opacity="0.2" d="M202.961 110.181C202.983 110.644 202.938 111.108 202.827 111.557C202.584 112.647 202.066 113.648 201.327 114.455C200.588 115.261 199.655 115.844 198.627 116.141C196.417 116.741 194.427 115.859 193.813 114.122C193.665 113.72 193.591 113.293 193.595 112.862C193.589 112.365 193.66 111.871 193.805 111.398C194.158 110.333 194.747 109.372 195.522 108.592C196.297 107.812 197.237 107.236 198.265 106.91C199.1 106.608 200.011 106.642 200.823 107.006C201.634 107.369 202.288 108.036 202.659 108.876C202.837 109.287 202.939 109.73 202.961 110.181Z" fill="#E8EDF1"/>
<path d="M196.157 110.102C196.233 110.005 196.317 109.917 196.401 109.828C196.419 109.861 196.445 109.888 196.476 109.908C197.155 110.317 197.699 110.932 198.039 111.671L198.148 111.892C198.526 112.686 199.058 113.389 199.71 113.955C199.245 114.109 198.753 114.154 198.269 114.085C197.786 114.017 197.323 113.837 196.913 113.558C195.628 112.747 195.3 111.204 196.157 110.102Z" fill="white"/>
<path d="M200.668 113.285C200.6 113.383 200.521 113.472 200.433 113.549C200.428 113.516 200.416 113.483 200.399 113.454C200.382 113.426 200.359 113.401 200.332 113.382C199.723 112.865 199.237 112.207 198.912 111.46L198.811 111.239C198.457 110.468 197.901 109.82 197.207 109.37C197.646 109.192 198.121 109.133 198.588 109.198C199.054 109.262 199.498 109.449 199.878 109.74C200.155 109.915 200.396 110.147 200.586 110.421C200.776 110.696 200.912 111.007 200.986 111.338C201.06 111.668 201.069 112.011 201.015 112.345C200.96 112.679 200.842 112.999 200.668 113.285Z" fill="white"/>
<path d="M204.313 102.475C203.473 100.712 203.095 99.83 202.314 98.0667C198.4 99.1511 197.056 99.4509 193.116 100.862C192.486 103.066 192.158 104.142 191.486 106.337C191.466 106.385 191.449 106.436 191.436 106.487C196.963 104.529 198.954 104.115 204.364 102.625C204.347 102.554 204.33 102.528 204.313 102.475Z" fill="#1E5799"/>
<path d="M203.616 97.6787C198.576 99.0894 196.896 99.4421 191.806 101.303C191.806 100.747 191.806 100.421 191.806 99.8918C196.846 98.0402 198.475 97.6699 203.566 96.2504C203.557 96.8235 203.582 97.1056 203.616 97.6787Z" fill="#263238"/>
<path d="M219.324 82.1784V81.6494C219.19 78.8544 219.064 76.0506 218.93 73.2556C218.552 64.9765 218.157 56.424 217.678 48.0126V47.6423L218.022 47.5542C228.578 44.8697 239.372 43.3479 250.228 43.0134H250.64V43.4366C251.16 52.7826 251.891 62.2432 252.588 71.3864L253.092 77.9992H252.656C241.612 78.1675 230.614 79.5296 219.837 82.0638L219.324 82.1784ZM218.484 48.3301C218.955 56.6268 219.324 65.0823 219.719 73.2115C219.845 75.8566 219.963 78.5017 220.089 81.0851C230.619 78.6366 241.359 77.3103 252.143 77.1263L251.715 71.4482C251.018 62.4372 250.304 53.1177 249.783 43.9128C239.242 44.2621 228.763 45.7422 218.51 48.3301H218.484Z" fill="#1E5799"/>
<path d="M231.101 70.7516C230.79 71.3905 230.349 71.9499 229.809 72.3902C229.269 72.8305 228.643 73.141 227.977 73.2997C227.646 73.3458 227.31 73.2875 227.01 73.1322C225.818 72.515 225.725 70.4166 226.775 68.5121C227.221 67.6768 227.867 66.9779 228.649 66.4842C228.965 66.2582 229.33 66.1174 229.711 66.0744C230.092 66.0313 230.477 66.0873 230.833 66.2373C232.051 66.8986 232.168 68.8471 231.101 70.7516Z" fill="#1E5799"/>
<g opacity="0.2">
<path d="M231.101 70.7517C230.79 71.3906 230.348 71.95 229.808 72.3903C229.268 72.8305 228.643 73.141 227.976 73.2998C227.649 73.3468 227.316 73.2916 227.019 73.1411C226.89 73.0744 226.771 72.9882 226.666 72.8854L226.615 72.8325C226.566 72.7807 226.521 72.7247 226.481 72.665C226.391 72.5471 226.318 72.4165 226.263 72.277L226.187 72.083C226.162 72.0148 226.145 71.9438 226.137 71.8714C226.114 71.8123 226.1 71.7498 226.095 71.6863C226.095 71.5981 226.095 71.5011 226.095 71.4041C226.07 70.9318 226.118 70.4585 226.237 70.0022C226.337 69.6231 226.469 69.2542 226.632 68.9001C226.687 68.7731 226.749 68.6495 226.817 68.5298C227.263 67.6945 227.908 66.9956 228.69 66.5019C229.008 66.278 229.373 66.1385 229.753 66.0955C230.134 66.0525 230.518 66.1073 230.874 66.255C231.001 66.3175 231.117 66.4008 231.219 66.5019C231.425 66.6852 231.586 66.9181 231.689 67.1808C231.849 67.7846 231.879 68.4181 231.777 69.0356C231.676 69.6532 231.445 70.2393 231.101 70.7517Z" fill="#E8EDF1"/>
</g>
<path d="M230.589 68.5738C230.577 69.5061 230.33 70.4187 229.875 71.2189C229.416 72.0766 228.764 72.8032 227.976 73.335C227.649 73.3789 227.317 73.3239 227.019 73.1763C226.89 73.1096 226.771 73.0235 226.666 72.9206L226.615 72.8677C226.566 72.8159 226.521 72.7599 226.481 72.7002C226.391 72.5823 226.318 72.4517 226.263 72.3122L226.187 72.1182C226.162 72.05 226.145 71.979 226.137 71.9066C226.114 71.8475 226.1 71.7851 226.095 71.7215C226.095 71.6333 226.095 71.5363 226.095 71.4393C226.07 70.967 226.118 70.4937 226.237 70.0374C226.331 69.6562 226.463 69.2867 226.632 68.9353C226.687 68.8083 226.749 68.6847 226.817 68.565C227.263 67.7297 227.908 67.0308 228.69 66.5371C229.021 66.4976 229.355 66.5556 229.656 66.7046C230.038 66.8942 230.338 67.2279 230.496 67.6392C230.58 67.9425 230.611 68.259 230.589 68.5738Z" fill="#1E5799"/>
<path d="M231.647 67.1631C231.337 67.6672 230.983 68.1395 230.589 68.5738C230.206 69.0115 229.787 69.4128 229.337 69.7729C229.254 69.8483 229.167 69.9189 229.077 69.9845C228.189 70.7232 227.447 71.6367 226.893 72.6737C226.839 72.7663 226.76 72.84 226.666 72.8853L226.616 72.8324C226.566 72.7807 226.521 72.7246 226.481 72.6649C226.391 72.547 226.318 72.4164 226.263 72.2769C226.864 71.1487 227.675 70.1591 228.648 69.3673L228.909 69.1469C229.465 68.6922 229.972 68.1748 230.421 67.604C230.668 67.2901 230.893 66.957 231.093 66.6076C231.116 66.5662 231.148 66.5303 231.185 66.5018C231.389 66.6787 231.548 66.9059 231.647 67.1631Z" fill="#263238"/>
<path d="M234.688 61.0883C234.512 61.1102 234.334 61.1102 234.159 61.0883H233.999C233.73 61.0266 233.453 60.9296 233.159 60.8414C232.365 60.5232 231.663 59.9946 231.121 59.307C230.579 58.6194 230.216 57.7963 230.068 56.9179C229.555 54.599 230.311 52.2625 231.84 51.3632C232.082 51.226 232.343 51.1279 232.613 51.0722C232.888 50.9917 233.178 50.9917 233.453 51.0722C233.688 51.1309 233.912 51.2292 234.117 51.3632C235.588 52.4651 236.599 54.1196 236.939 55.9833C237.544 58.8047 236.578 61.0001 234.688 61.0883Z" fill="#1E5799"/>
<g opacity="0.2">
<path d="M234.688 61.0883C234.512 61.1102 234.334 61.1102 234.159 61.0883H233.999C233.73 61.0266 233.453 60.9296 233.159 60.8414C232.365 60.5232 231.663 59.9946 231.121 59.307C230.579 58.6194 230.216 57.7963 230.068 56.9179C229.555 54.599 230.311 52.2625 231.84 51.3632C232.082 51.226 232.343 51.1279 232.613 51.0722C232.888 50.9917 233.178 50.9917 233.453 51.0722C233.688 51.1309 233.912 51.2292 234.117 51.3632C235.588 52.4651 236.599 54.1196 236.939 55.9833C237.544 58.8047 236.578 61.0001 234.688 61.0883Z" fill="#E8EDF1"/>
</g>
<path d="M234.159 61.053H233.999C233.73 60.9913 233.453 60.8943 233.159 60.8061C232.365 60.488 231.663 59.9594 231.121 59.2718C230.579 58.5842 230.217 57.7611 230.068 56.8826C229.556 54.5637 230.278 52.2184 231.84 51.3279C232.417 51.3254 232.978 51.5308 233.428 51.9098C233.739 52.1856 234.021 52.496 234.268 52.8356C234.966 53.8174 235.456 54.9448 235.704 56.142C236.25 58.5402 235.595 60.5064 234.159 61.053Z" fill="#1E5799"/>
<path d="M234.268 52.7915C234.268 52.7915 234.268 52.862 234.268 52.9943C234.268 53.1265 234.268 53.1618 234.268 53.2764C234.293 54.0105 234.254 54.7454 234.15 55.4718C234.15 55.5688 234.15 55.6746 234.091 55.7804C234.032 55.8862 234.091 55.8421 234.091 55.8686C234.081 55.9487 234.067 56.0281 234.049 56.1067C234.049 56.2742 233.999 56.3535 233.957 56.5122C233.642 57.9125 233.642 59.3705 233.957 60.7708C233.974 60.8372 233.974 60.9072 233.957 60.9736C233.688 60.9119 233.411 60.8149 233.117 60.7267C232.806 59.2465 232.823 57.711 233.167 56.2389C233.209 56.0714 233.226 55.992 233.26 55.8333C233.293 55.6746 233.31 55.6041 233.335 55.4895C233.335 55.4101 233.335 55.3131 233.386 55.225C233.436 55.1368 233.444 54.8017 233.461 54.6078C233.503 54.1418 233.517 53.6736 233.503 53.2059C233.503 53.1177 233.503 53.0736 233.503 52.9854C233.496 52.6257 233.471 52.2667 233.428 51.9098C233.428 51.7511 233.428 51.5835 233.36 51.4248C233.339 51.3581 233.334 51.2868 233.346 51.2175C233.358 51.1482 233.386 51.0831 233.428 51.0281C233.662 51.0868 233.886 51.1851 234.091 51.319C234.18 51.8055 234.238 52.2973 234.268 52.7915Z" fill="#263238"/>
<path d="M244.642 71.3688C244.356 71.7519 243.992 72.0625 243.576 72.2777C243.16 72.4929 242.703 72.6072 242.24 72.612C240.935 72.6704 239.644 72.3139 238.535 71.5893C236.082 70.0728 234.89 67.4541 235.906 65.9729C236.215 65.5455 236.649 65.2359 237.141 65.0912C238.851 64.7435 240.622 65.1173 242.072 66.1316C244.482 67.6304 245.625 69.8523 244.642 71.3688Z" fill="#1E5799"/>
<g opacity="0.2">
<path d="M244.642 71.3689C244.517 71.5498 244.373 71.7154 244.213 71.8626C244.011 72.0313 243.788 72.1707 243.55 72.277C243.136 72.4708 242.692 72.5843 242.239 72.6121C240.935 72.6661 239.645 72.3099 238.535 71.5893C236.091 70.0816 234.881 67.4365 235.906 65.9729C236.058 65.7486 236.252 65.5596 236.477 65.4174C236.674 65.2844 236.89 65.1834 237.115 65.1176C238.825 64.77 240.597 65.1438 242.046 66.1581C244.474 67.6305 245.633 69.8524 244.642 71.3689Z" fill="#E8EDF1"/>
</g>
<path d="M243.432 71.6158C243.139 72.0661 242.723 72.4132 242.24 72.6121C240.935 72.6704 239.644 72.314 238.535 71.5893C236.082 70.0728 234.89 67.4541 235.906 65.9729C236.215 65.5455 236.649 65.2359 237.141 65.0912C238.459 65.1537 239.74 65.5696 240.862 66.2991C243.264 67.7804 244.407 70.0551 243.432 71.6158Z" fill="#1E5799"/>
<path d="M238.678 66.3079L238.426 66.0875L238.619 66.2462C238.643 66.2621 238.663 66.2831 238.678 66.3079Z" fill="white"/>
<path d="M244.213 71.8625C244.011 72.0312 243.788 72.1706 243.55 72.2769C243.407 72.1888 243.256 72.1006 243.121 72.0036C241.996 71.2291 241.01 70.2532 240.207 69.1205L239.955 68.7678L239.77 68.5385C239.274 67.9015 238.726 67.3114 238.132 66.7751L237.67 66.4048C237.359 66.1491 237.023 65.9199 236.679 65.6907C236.63 65.6621 236.587 65.6229 236.554 65.5758C236.521 65.5287 236.497 65.4747 236.485 65.4173L237.124 65.1176C237.435 65.3115 237.729 65.5231 238.014 65.7436L238.165 65.8582C238.179 65.8619 238.194 65.8619 238.207 65.8582L238.434 66.0522L238.686 66.2726L239.148 66.687C239.916 67.4275 240.606 68.2522 241.206 69.1469C241.881 69.9796 242.667 70.7044 243.541 71.2983L244.054 71.6245C244.094 71.6508 244.129 71.6855 244.157 71.7264C244.184 71.7673 244.203 71.8136 244.213 71.8625Z" fill="#263238"/>
<path d="M220.298 121.299V120.762C219.996 113.461 219.862 106.055 219.727 98.8866C219.66 94.8308 219.579 90.778 219.484 86.728V86.3753L219.811 86.2872C230.668 83.3801 241.847 82.0102 253.05 82.2137H253.436V82.6105C254.352 94.3988 254.999 106.346 255.587 117.57V118.081L255.1 118.028C241.954 116.565 232.218 118.143 220.777 121.158L220.298 121.299ZM220.298 87.0543C220.394 90.9925 220.472 94.9307 220.534 98.869C220.668 105.852 220.802 113.073 221.08 120.18C231.958 117.341 241.912 115.771 254.68 117.111C254.108 106.169 253.47 94.5663 252.588 83.0954C241.71 82.9414 230.858 84.2721 220.307 87.0543H220.298Z" fill="#1E5799"/>
<path d="M243.751 107.783C239.875 107.851 236.012 108.261 232.201 109.008C231.168 103.63 230.664 101.585 229.681 97.5464C235.906 95.8447 238.921 95.783 244.801 95.88C244.415 100.13 244.188 102.272 243.751 107.783Z" fill="#1E5799"/>
<g opacity="0.2">
<path d="M244.827 96.2063C243.264 96.2063 242.492 96.2063 240.887 96.2063C240.887 100.315 240.887 102.449 240.845 107.88C242.03 107.809 242.601 107.792 243.752 107.748C244.18 102.44 244.398 100.333 244.827 96.2063Z" fill="#E8EDF1"/>
</g>
<path d="M248.136 92.1945C248.173 92.7073 248.103 93.2224 247.93 93.7037C247.758 94.185 247.487 94.6208 247.137 94.9807C247.137 94.9807 247.137 94.9807 247.086 94.9807C246.573 95.4843 245.941 95.8344 245.255 95.9946C245.115 96.0375 244.972 96.067 244.827 96.0828H244.608H244.171C238.905 96.0828 236.149 96.0299 230.673 97.4935C230.373 97.5792 230.067 97.6324 229.757 97.6522C227.749 97.7756 226.103 96.6206 226.036 94.6809C226.049 93.4945 226.473 92.3537 227.229 91.4715C228.007 90.5057 229.057 89.8236 230.227 89.523C235.528 88.218 238.434 88.218 243.667 88.0858C244.771 88.0445 245.848 88.4466 246.678 89.2102C247.508 89.9737 248.03 91.0411 248.136 92.1945Z" fill="#1E5799"/>
<g opacity="0.2">
<path d="M248.136 92.1945C248.173 92.7073 248.103 93.2224 247.93 93.7037C247.758 94.185 247.487 94.6208 247.137 94.9806C247.137 94.9806 247.137 94.9806 247.086 94.9806C246.529 95.4268 245.908 95.778 245.247 96.021C245.109 96.0768 244.965 96.1152 244.818 96.1356C244.794 96.1438 244.767 96.1438 244.743 96.1356C243.063 96.1356 242.223 96.1356 240.492 96.1356C241.025 96.138 241.553 96.0301 242.046 95.8182C242.586 95.5814 243.037 95.167 243.333 94.6374C243.628 94.1078 243.752 93.4918 243.684 92.8822C243.684 92.2474 243.626 91.9299 243.584 91.2951C243.493 90.4595 243.114 89.6876 242.518 89.1254C241.922 88.5633 241.151 88.2499 240.35 88.2445C241.694 88.1827 242.349 88.1651 243.651 88.1298C244.75 88.0831 245.826 88.477 246.659 89.2319C247.492 89.9867 248.02 91.0458 248.136 92.1945Z" fill="#E8EDF1"/>
</g>
<path d="M239.569 99.0364C239.627 99.9975 239.653 100.482 239.711 101.505C238.264 101.47 236.816 101.57 235.385 101.805C235.318 100.773 235.293 100.28 235.234 99.3098C236.667 99.0669 238.119 98.9753 239.569 99.0364Z" fill="#1E5799"/>
<path d="M239.569 99.0364C239.627 99.9975 239.653 100.482 239.711 101.505C238.264 101.47 236.816 101.57 235.385 101.805C235.318 100.773 235.293 100.28 235.234 99.3098C236.667 99.0669 238.119 98.9753 239.569 99.0364Z" fill="#1E5799"/>
<g opacity="0.5">
<path d="M239.569 99.0364C239.627 99.9975 239.653 100.482 239.711 101.505C238.264 101.47 236.816 101.57 235.385 101.805C235.318 100.773 235.293 100.28 235.234 99.3098C236.667 99.0669 238.119 98.9753 239.569 99.0364Z" fill="white"/>
</g>
<path d="M237.754 99.0982C237.813 100.059 237.838 100.553 237.897 101.585C237.052 101.584 236.209 101.658 235.377 101.805C235.31 100.773 235.284 100.28 235.226 99.3098C236.06 99.1572 236.907 99.0864 237.754 99.0982Z" fill="white"/>
<path d="M249.052 109.432C249.082 109.877 248.957 110.319 248.699 110.675C248.582 110.828 248.434 110.953 248.265 111.038C248.097 111.123 247.912 111.168 247.725 111.169C240.165 111.107 236.737 111.398 228.127 113.17C227.932 113.227 227.727 113.236 227.528 113.196C227.328 113.156 227.14 113.069 226.978 112.942C226.816 112.814 226.684 112.649 226.592 112.459C226.5 112.27 226.45 112.06 226.447 111.848C226.435 111.375 226.587 110.914 226.876 110.551C227.153 110.182 227.546 109.926 227.985 109.829C236.569 108.109 239.963 107.774 247.548 107.704C247.963 107.733 248.35 107.929 248.63 108.251C248.91 108.573 249.061 108.996 249.052 109.432Z" fill="#1E5799"/>
<path d="M239.258 92.2651C239.249 92.5501 239.186 92.8303 239.072 93.0891C238.958 93.3478 238.795 93.5796 238.593 93.7707C238.392 93.9617 238.155 94.108 237.899 94.2008C237.642 94.2936 237.37 94.3309 237.099 94.3106C236.876 94.3197 236.654 94.302 236.435 94.2577C236.009 94.2233 235.608 94.0334 235.301 93.721C234.994 93.4086 234.801 92.9933 234.755 92.5472C234.735 92.0829 234.871 91.6259 235.14 91.2566C235.409 90.8873 235.793 90.6293 236.225 90.5281C236.439 90.4673 236.659 90.4289 236.88 90.4135C237.428 90.3417 237.98 90.494 238.423 90.8389C238.866 91.1838 239.165 91.6946 239.258 92.2651Z" fill="#1E5799"/>
<path d="M239.258 92.2651C239.249 92.5501 239.186 92.8303 239.072 93.0891C238.958 93.3478 238.795 93.5796 238.593 93.7707C238.392 93.9617 238.155 94.108 237.899 94.2008C237.642 94.2936 237.37 94.3309 237.099 94.3106C236.876 94.3197 236.654 94.302 236.435 94.2577C236.009 94.2233 235.608 94.0334 235.301 93.721C234.994 93.4086 234.801 92.9933 234.755 92.5472C234.735 92.0829 234.871 91.6259 235.14 91.2566C235.409 90.8873 235.793 90.6293 236.225 90.5281C236.439 90.4673 236.659 90.4289 236.88 90.4135C237.428 90.3417 237.98 90.494 238.423 90.8389C238.866 91.1838 239.165 91.6946 239.258 92.2651Z" fill="white"/>
<path d="M237.998 92.3091C237.992 92.7733 237.833 93.221 237.548 93.5762C237.263 93.9314 236.87 94.1722 236.435 94.2577C236.009 94.2232 235.608 94.0333 235.301 93.7209C234.994 93.4085 234.801 92.9933 234.755 92.5472C234.735 92.0828 234.871 91.6258 235.14 91.2565C235.409 90.8872 235.793 90.6293 236.225 90.5281C236.668 90.5745 237.083 90.7751 237.404 91.0979C237.725 91.4207 237.934 91.8471 237.998 92.3091Z" fill="white"/>
<path d="M240.77 96.2415C240.837 97.2995 240.871 97.8462 240.929 98.9571C238.576 98.8702 236.222 99.0774 233.915 99.5743C233.848 98.4457 233.815 97.9079 233.747 96.8499C236.056 96.3508 238.414 96.1465 240.77 96.2415Z" fill="#1E5799"/>
<g opacity="0.5">
<path d="M240.77 96.2415C240.837 97.2995 240.871 97.8462 240.929 98.9571C238.576 98.8702 236.222 99.0774 233.915 99.5743C233.848 98.4457 233.815 97.9079 233.747 96.8499C236.056 96.3508 238.414 96.1465 240.77 96.2415Z" fill="white"/>
</g>
<path d="M238.594 96.3032C238.661 97.3524 238.695 97.8991 238.762 99.0188C237.131 99.0045 235.505 99.1909 233.915 99.5743C233.848 98.4457 233.815 97.9079 233.747 96.8499C235.337 96.4695 236.964 96.286 238.594 96.3032Z" fill="white"/>
<path d="M242.668 92.1769C242.668 92.4108 242.579 92.635 242.422 92.8004C242.264 92.9657 242.051 93.0586 241.828 93.0586C241.601 93.0743 241.377 92.9993 241.201 92.8488C241.025 92.6984 240.91 92.4835 240.879 92.2475C240.879 92.0136 240.967 91.7893 241.125 91.624C241.282 91.4586 241.496 91.3658 241.719 91.3658C241.946 91.348 242.171 91.4221 242.347 91.573C242.524 91.7239 242.638 91.94 242.668 92.1769Z" fill="#1E5799"/>
<path d="M245.7 92.1681C245.71 92.2866 245.696 92.406 245.657 92.5179C245.619 92.6298 245.557 92.7315 245.477 92.8156C245.397 92.8997 245.3 92.9643 245.193 93.0048C245.087 93.0453 244.973 93.0607 244.86 93.0498C244.626 93.0532 244.4 92.9645 244.226 92.8013C244.052 92.638 243.942 92.4121 243.919 92.1681C243.915 92.0532 243.935 91.9387 243.976 91.8322C244.017 91.7257 244.08 91.6297 244.159 91.5505C244.239 91.4712 244.333 91.4107 244.437 91.3727C244.54 91.3348 244.65 91.3204 244.759 91.3305C244.988 91.3199 245.212 91.4003 245.386 91.5556C245.561 91.711 245.673 91.9297 245.7 92.1681Z" fill="#1E5799"/>
<path d="M230.429 93.5876C230.419 93.839 230.331 94.0802 230.18 94.2755C230.029 94.4708 229.822 94.6099 229.589 94.6721C229.085 94.8043 228.648 94.5486 228.623 94.0813C228.64 93.8253 228.735 93.5817 228.894 93.3865C229.053 93.1913 229.267 93.0547 229.505 92.9968C229.976 92.8646 230.404 93.1291 230.429 93.5876Z" fill="#1E5799"/>
<path d="M243.188 100.923C241.828 100.923 241.139 100.923 239.719 100.994C239.719 100.535 239.677 100.315 239.652 99.8653C241.072 99.8653 241.761 99.8124 243.121 99.8036C243.147 100.244 243.163 100.474 243.188 100.923Z" fill="#263238"/>
<path d="M240.795 96.5413C238.445 96.4438 236.093 96.6451 233.789 97.1408C233.749 97.1615 233.704 97.1705 233.659 97.1668C233.614 97.1631 233.571 97.147 233.535 97.12C233.498 97.0931 233.468 97.0562 233.45 97.0134C233.431 96.9705 233.424 96.9232 233.428 96.8763C233.428 96.7885 233.456 96.7032 233.508 96.6344C233.56 96.5655 233.632 96.5171 233.714 96.4972C236.02 96.0015 238.375 95.8002 240.728 95.8976C240.811 95.8947 240.893 95.9248 240.957 95.9819C241.021 96.039 241.062 96.119 241.072 96.2062C241.075 96.2475 241.071 96.289 241.059 96.3284C241.047 96.3678 241.027 96.4042 241.001 96.4355C240.975 96.4667 240.944 96.4922 240.908 96.5104C240.873 96.5286 240.834 96.5391 240.795 96.5413Z" fill="#263238"/>
<path d="M241.828 93.3496C241.521 93.3665 241.218 93.2632 240.979 93.0596C240.74 92.856 240.582 92.5666 240.534 92.2474C240.535 92.0919 240.566 91.9383 240.625 91.7956C240.684 91.6529 240.77 91.5242 240.877 91.4172C240.985 91.3101 241.112 91.227 241.251 91.1727C241.389 91.1184 241.537 91.0941 241.685 91.1012C241.993 91.0783 242.297 91.1796 242.536 91.3844C242.775 91.5893 242.93 91.8823 242.97 92.2033C242.972 92.3588 242.943 92.5129 242.885 92.6561C242.828 92.7993 242.743 92.9286 242.636 93.036C242.529 93.1434 242.402 93.2267 242.263 93.2806C242.124 93.3345 241.976 93.358 241.828 93.3496ZM241.727 91.6831C241.657 91.6796 241.586 91.6911 241.52 91.7169C241.454 91.7428 241.394 91.7825 241.343 91.8336C241.291 91.8847 241.251 91.9462 241.223 92.0143C241.195 92.0824 241.181 92.1557 241.181 92.2298C241.202 92.3817 241.277 92.5197 241.391 92.6162C241.504 92.7127 241.649 92.7605 241.794 92.75C241.864 92.7549 241.934 92.7445 242 92.7196C242.065 92.6947 242.125 92.6557 242.176 92.6051C242.226 92.5545 242.266 92.4935 242.293 92.4259C242.32 92.3582 242.333 92.2854 242.332 92.2122C242.319 92.0586 242.251 91.9159 242.142 91.8128C242.033 91.7097 241.891 91.6539 241.744 91.6567L241.727 91.6831Z" fill="white"/>
<path d="M244.894 93.3496C244.585 93.3571 244.285 93.2454 244.049 93.0358C243.814 92.8261 243.66 92.5331 243.617 92.2122C243.614 92.0584 243.642 91.9056 243.698 91.7635C243.754 91.6213 243.838 91.4929 243.944 91.3862C244.049 91.2795 244.175 91.1967 244.312 91.1431C244.45 91.0896 244.596 91.0663 244.742 91.0748C245.052 91.0634 245.355 91.1736 245.591 91.384C245.827 91.5944 245.98 91.8898 246.019 92.2122C246.024 92.3668 245.998 92.5208 245.943 92.6642C245.888 92.8076 245.804 92.9371 245.698 93.0444C245.592 93.1517 245.465 93.2343 245.327 93.2869C245.188 93.3395 245.041 93.3608 244.894 93.3496ZM244.784 91.6656C244.715 91.6619 244.645 91.6734 244.58 91.6994C244.515 91.7255 244.455 91.7655 244.405 91.8169C244.356 91.8682 244.317 91.9299 244.291 91.998C244.265 92.0661 244.253 92.139 244.255 92.2122C244.274 92.3633 244.345 92.5019 244.455 92.6012C244.565 92.7005 244.707 92.7535 244.852 92.7501C244.921 92.755 244.991 92.7446 245.057 92.7197C245.123 92.6947 245.183 92.6557 245.233 92.6052C245.284 92.5546 245.324 92.4936 245.35 92.4259C245.377 92.3583 245.391 92.2855 245.389 92.2122C245.387 92.0454 245.322 91.8862 245.209 91.769C245.096 91.6519 244.943 91.5862 244.784 91.5862V91.6656Z" fill="white"/>
<path d="M229.572 94.9719C228.884 95.1571 228.287 94.8044 228.262 94.1695C228.284 93.8223 228.412 93.4917 228.627 93.2265C228.841 92.9614 229.132 92.7758 229.455 92.6971C230.144 92.5208 230.715 92.8823 230.748 93.5083C230.731 93.8534 230.607 94.183 230.394 94.4472C230.182 94.7114 229.893 94.8956 229.572 94.9719ZM229.488 93.2967C229.335 93.3315 229.196 93.4186 229.094 93.5446C228.992 93.6705 228.933 93.8282 228.926 93.9932C228.933 94.0652 228.957 94.1343 228.994 94.1951C229.032 94.2559 229.083 94.3067 229.142 94.3434C229.201 94.3802 229.268 94.402 229.337 94.407C229.406 94.412 229.475 94.4001 229.539 94.3723C229.692 94.3362 229.83 94.2487 229.931 94.123C230.033 93.9973 230.093 93.8403 230.102 93.6758C230.068 93.3496 229.816 93.2085 229.488 93.2967Z" fill="white"/>
<path d="M236.905 91.7184C236.823 91.7312 236.739 91.7099 236.672 91.6588C236.604 91.6078 236.559 91.5311 236.544 91.4451C236.544 91.0572 236.544 90.872 236.485 90.4841C236.485 90.3254 236.62 90.1931 236.813 90.1843C236.896 90.1713 236.981 90.1924 237.05 90.2433C237.119 90.2942 237.166 90.3709 237.183 90.4576C237.183 90.8367 237.183 91.0307 237.241 91.4187C237.25 91.5862 237.107 91.7096 236.905 91.7184Z" fill="#263238"/>
<path d="M240.383 103.048H239.955C239.955 102.969 239.955 102.925 239.955 102.837C238.431 102.819 236.908 102.934 235.402 103.18C235.469 104.23 235.494 104.776 235.561 105.905C235.553 106.212 235.605 106.519 235.714 106.804C235.822 107.09 235.986 107.35 236.193 107.567C236.401 107.784 236.649 107.954 236.922 108.067C237.194 108.18 237.486 108.233 237.779 108.224H238.098C238.525 108.17 238.928 107.987 239.257 107.698C239.587 107.408 239.829 107.024 239.955 106.593C240.055 106.551 240.143 106.481 240.207 106.39L240.971 105.402C241.083 105.252 241.137 105.063 241.122 104.873C241.122 104.415 241.122 104.186 241.063 103.736C241.059 103.55 240.985 103.374 240.858 103.245C240.73 103.117 240.56 103.046 240.383 103.048ZM240.61 104.882C240.623 104.916 240.623 104.954 240.61 104.988L240.123 105.614V105.535C240.081 104.759 240.064 104.38 240.022 103.63H240.45C240.484 103.632 240.516 103.646 240.54 103.67C240.565 103.695 240.581 103.727 240.585 103.762C240.576 104.203 240.585 104.432 240.61 104.891V104.882Z" fill="#263238"/>
<path d="M234.764 109.07C236.874 108.737 238.999 108.516 241.131 108.409C241.278 108.379 241.417 108.318 241.541 108.23C241.665 108.142 241.771 108.029 241.853 107.898C239.233 107.993 236.62 108.264 234.033 108.709C234.122 108.821 234.234 108.912 234.36 108.974C234.486 109.037 234.624 109.07 234.764 109.07Z" fill="#263238"/>
<path d="M200.819 162.501C200.875 163.001 201.011 163.487 201.222 163.938C201.487 164.614 201.847 165.244 202.289 165.807C202.947 166.571 203.733 167.202 204.608 167.668C204.608 167.668 205.187 167.95 205.221 167.985C205.779 168.29 206.36 168.544 206.96 168.744C208.14 169.208 209.387 169.461 210.647 169.493C210.756 169.491 210.864 169.517 210.961 169.569C211.057 169.622 211.14 169.698 211.202 169.793C211.354 170.046 211.52 170.29 211.697 170.525C211.839 170.727 211.968 170.939 212.084 171.159C212.154 171.323 212.255 171.471 212.381 171.593C212.506 171.716 212.654 171.811 212.814 171.874C213.464 172.105 214.145 172.224 214.83 172.226C216.491 172.278 218.152 172.145 219.786 171.829C220.542 171.68 221.626 171.468 222.575 171.195C223.641 170.902 224.69 170.546 225.717 170.128C226.569 169.815 227.386 169.404 228.153 168.902C228.475 168.714 228.744 168.44 228.934 168.109C229.018 167.924 229.06 167.765 229.152 167.589C229.404 167.104 229.648 166.61 229.883 166.125C230.244 165.384 230.547 164.626 230.841 163.885C231.146 163.164 231.413 162.425 231.639 161.672C231.84 160.914 232.059 160.147 232.218 159.362C232.487 158.049 232.714 156.673 232.899 155.245C232.983 154.583 232.991 153.79 233.042 153.076C233.076 152.484 233.028 151.89 232.899 151.312C232.802 150.915 232.615 150.549 232.353 150.246C231.631 149.457 230.746 148.854 229.766 148.482C228.844 148.125 227.875 147.92 226.893 147.874C226.473 147.874 226.053 147.759 225.65 147.75C221.326 147.553 217.024 148.492 213.134 150.484C212.249 150.915 211.39 151.404 210.563 151.947C209.798 152.46 209.084 153.05 208.43 153.711C207.923 154.187 207.497 154.751 207.17 155.377C207.059 155.601 206.974 155.837 206.918 156.082C206.834 156.373 206.834 156.382 206.556 156.4C205.729 156.434 204.916 156.643 204.167 157.014C203.418 157.385 202.748 157.911 202.197 158.56C201.772 159.066 201.439 159.648 201.214 160.279C200.913 160.976 200.778 161.738 200.819 162.501ZM212.89 156.726C212.003 156.74 211.116 156.66 210.244 156.488C210.031 156.471 209.825 156.404 209.639 156.294C209.931 155.693 210.333 155.16 210.824 154.725C211.145 154.44 211.481 154.175 211.832 153.931C212.421 153.517 213.039 153.149 213.68 152.829C214.582 152.376 215.507 151.976 216.452 151.63C218.048 151.031 219.716 150.672 221.408 150.563C222.558 150.449 223.714 150.413 224.868 150.457C226.006 150.483 227.135 150.664 228.228 150.995C229.143 151.238 229.971 151.752 230.614 152.476C230.594 152.502 230.571 152.526 230.547 152.547C230.463 152.617 230.379 152.697 230.295 152.758C230.067 152.939 229.829 153.104 229.581 153.252C228.642 153.799 227.651 154.243 226.624 154.575L225.927 154.804C225.798 154.851 225.666 154.89 225.532 154.919C224.776 155.165 224.012 155.342 223.247 155.518C222.483 155.694 221.744 155.827 220.996 155.932C220.416 156.003 219.736 156.118 219.316 156.197C219.283 156.205 219.248 156.205 219.215 156.197C219.215 156.197 219.215 156.197 219.173 156.197L218.921 156.25L217.014 156.488C216.426 156.55 215.805 156.647 215.166 156.691C214.528 156.735 213.663 156.735 212.89 156.726ZM204.96 160.914C205.077 160.541 205.275 160.203 205.539 159.925C205.803 159.648 206.126 159.44 206.481 159.318C206.661 159.247 206.846 159.191 207.035 159.151C207.237 160.2 207.531 161.161 207.783 162.122C208.126 163.361 208.542 164.577 209.026 165.763C209.235 166.357 209.549 166.904 209.95 167.377C209.824 167.306 209.261 167.042 209.11 166.971C208.295 166.539 207.548 165.98 206.892 165.314C206.204 164.708 205.633 163.969 205.212 163.136C205.032 162.802 204.916 162.433 204.873 162.052C204.829 161.67 204.859 161.283 204.96 160.914Z" fill="#1E5799"/>
<path opacity="0.7" d="M208.782 157.079C210.647 158.137 213.629 157.881 219.862 157.026C226.095 156.17 229.816 154.768 231.412 152.987C232.47 151.815 231.975 150.21 231.194 149.258C230.741 148.944 230.256 148.684 229.749 148.482C228.827 148.124 227.858 147.919 226.876 147.874C226.464 147.874 226.036 147.759 225.641 147.741C221.311 147.512 216.997 148.46 213.117 150.492C212.235 150.921 211.379 151.406 210.555 151.947C210.099 152.257 209.661 152.596 209.244 152.961C207.884 154.336 207.388 156.303 208.782 157.079ZM209.622 156.294C209.908 155.694 210.308 155.163 210.798 154.733C211.126 154.451 211.454 154.178 211.806 153.931C212.399 153.519 213.016 153.148 213.654 152.82C214.555 152.369 215.481 151.975 216.426 151.638C217.221 151.349 218.032 151.11 218.854 150.924C219.687 150.757 220.528 150.639 221.374 150.572C222.524 150.455 223.68 150.417 224.835 150.457C225.973 150.485 227.102 150.669 228.195 151.004C229.11 151.245 229.941 151.756 230.589 152.476L230.522 152.547C230.442 152.625 230.358 152.699 230.27 152.767C230.047 152.948 229.811 153.11 229.564 153.252C228.625 153.802 227.634 154.248 226.607 154.583L225.902 154.813L225.515 154.927C224.759 155.148 223.995 155.35 223.23 155.518C222.466 155.685 221.727 155.835 220.971 155.932C220.391 156.012 219.711 156.117 219.291 156.197H219.198H219.148H218.938H218.888C218.283 156.285 217.653 156.356 216.981 156.444C216.309 156.532 215.771 156.594 215.141 156.638C214.511 156.682 213.654 156.638 212.882 156.638C211.994 156.647 211.108 156.567 210.236 156.4C210.029 156.416 209.821 156.38 209.631 156.294H209.622Z" fill="white"/>
<path d="M209.639 156.294C209.825 156.404 210.031 156.471 210.244 156.488C211.116 156.66 212.002 156.739 212.89 156.726C213.663 156.726 214.41 156.77 215.141 156.726C215.872 156.682 216.401 156.585 216.989 156.523L218.896 156.285L219.148 156.232C219.148 156.232 219.148 156.232 219.19 156.232C219.223 156.24 219.257 156.24 219.291 156.232C219.736 156.153 220.416 156.038 220.971 155.968C221.718 155.862 222.483 155.712 223.222 155.553C223.961 155.395 224.751 155.201 225.507 154.954C225.64 154.925 225.772 154.887 225.901 154.839L226.599 154.61C227.625 154.278 228.616 153.835 229.555 153.287C229.803 153.139 230.042 152.974 230.269 152.794C230.353 152.732 230.437 152.653 230.521 152.582C230.546 152.561 230.568 152.537 230.589 152.511C229.945 151.788 229.117 151.273 228.203 151.03C227.11 150.699 225.98 150.518 224.843 150.492C223.688 150.449 222.532 150.484 221.382 150.598C219.69 150.707 218.022 151.066 216.426 151.665C215.482 152.011 214.557 152.411 213.654 152.864C213.015 153.187 212.398 153.555 211.806 153.966C211.456 154.21 211.119 154.475 210.798 154.76C210.319 155.185 209.924 155.707 209.639 156.294Z" fill="#263238"/>
<path opacity="0.3" d="M209.589 154.328C209.809 154.03 210.051 153.75 210.311 153.49C212.49 151.599 215.014 150.195 217.728 149.364C219.164 148.909 220.648 148.643 222.147 148.57C226.279 148.323 228.867 149.152 229.875 149.813C230.134 149.987 230.376 150.188 230.597 150.413C230.84 150.681 230.981 151.033 230.995 151.403C231.009 151.773 230.894 152.136 230.673 152.423C230.588 152.52 230.496 152.609 230.395 152.688C228.085 150.378 221.819 150.863 219.694 151.11C217.569 151.524 212.251 153.305 209.967 156.4C209.857 156.365 209.75 156.321 209.647 156.267C209.514 156.149 209.406 156.003 209.33 155.839C209.254 155.674 209.212 155.494 209.206 155.311C209.201 155.128 209.232 154.946 209.298 154.777C209.364 154.607 209.463 154.454 209.589 154.328Z" fill="#E8EDF1"/>
<path d="M238.913 125.681C236.452 123.662 233.243 124.324 230.001 125.17C228.775 125.414 227.603 125.899 226.548 126.598C225.549 127.365 224.944 128.653 225.549 129.402C226.153 130.152 227.733 130.372 227.455 131.412C224.809 133.105 221.575 133.44 218.787 134.454C216.739 135.235 214.922 136.566 213.52 138.316C213.036 138.771 212.691 139.366 212.529 140.027C212.386 141.093 213.369 141.666 214.293 142.002C214.461 142.063 214.444 142.354 214.293 142.46C213.616 142.852 212.999 143.349 212.461 143.932C212.117 144.32 212.369 144.894 212.806 144.761L212.965 144.717C214.15 144.417 215.074 144.938 215.107 145.907C215.058 146.462 214.832 146.982 214.467 147.385C214.101 147.788 213.616 148.051 213.091 148.129C212.806 148.2 213.016 148.57 213.427 148.597C214.244 148.577 215.048 148.379 215.788 148.015C216.277 147.883 216.734 147.644 217.128 147.312C217.522 146.981 217.844 146.565 218.073 146.093C218.543 144.964 218.283 143.245 217.443 143.227C219.408 142.676 221.341 142.001 223.23 141.208C224.154 140.911 224.952 140.288 225.49 139.445C225.918 138.563 225.347 137.337 224.448 137.611C227.069 136.297 229.824 135.406 232.403 134.26C234.963 133.203 237.299 131.623 239.274 129.614C239.692 129.215 239.985 128.692 240.114 128.115C240.134 127.634 240.034 127.157 239.823 126.73C239.612 126.303 239.298 125.941 238.913 125.681Z" fill="white"/>
<path d="M181.003 190.601V190.001C180.863 180.873 180.704 171.747 180.525 162.625C180.368 154.107 180.217 145.584 180.071 137.055V136.729L182.339 135.971C205.985 128.106 230.437 119.968 255.545 122.234H255.898V122.604C257.452 142.328 258.418 159.591 258.939 175.374V175.85H258.485C230.765 174.651 204.019 182.524 181.516 190.38L181.003 190.601ZM180.903 137.434C181.037 145.84 181.188 154.245 181.356 162.651C181.513 171.58 181.67 180.505 181.827 189.428C204.162 181.66 230.631 173.937 258.099 175.03C257.611 159.486 256.629 142.504 255.108 123.142C230.278 121 206.035 129.067 182.574 136.879L180.903 137.434Z" fill="#1E5799"/>
<path d="M80.0273 70.7517L81.4973 70.9545C81.5645 74.9398 81.3713 75.2307 81.2369 78.4401L79.5569 78.2638C79.843 75.7705 80.0001 73.2628 80.0273 70.7517Z" fill="#1E5799"/>
<path d="M89.4432 72.4357C89.6448 76.2358 89.5776 76.6678 89.6196 79.7802L88.242 79.5157C86.7804 77.3467 86.058 76.3239 84.672 74.3754C84.672 76.0771 84.6721 77.0205 84.6217 78.8985L82.9417 78.6604C83.0089 75.4687 83.16 75.1337 83.0424 71.2013L84.3276 71.4305C85.7808 74.0756 86.52 74.0756 87.906 76.7824C87.9512 75.218 87.9148 73.6521 87.7968 72.0918L89.4432 72.4357Z" fill="#1E5799"/>
<path d="M90.7537 79.2953C90.9721 78.8544 91.0813 78.6516 91.2913 78.2725C91.9959 78.8427 92.8053 79.2539 93.6685 79.4804C94.6429 79.7097 95.0293 79.4804 95.0293 79.1277C95.0293 77.9639 90.9217 77.4437 90.8293 74.9573C90.8293 73.8199 91.6693 72.7707 93.7693 73.2821C94.7049 73.5286 95.5697 74.0096 96.2893 74.684C96.1527 75.0835 95.9957 75.475 95.8189 75.8567C95.2279 75.3618 94.5436 75.0041 93.8113 74.8074C92.8201 74.5606 92.4505 74.8074 92.4673 75.2659C92.5093 76.5091 96.6001 77.1704 96.6169 79.4275C96.6169 80.4591 95.6761 81.2614 93.6517 80.7941C92.5888 80.5347 91.5972 80.0218 90.7537 79.2953Z" fill="#1E5799"/>
<path d="M99.1371 76.3328C98.2467 76.0771 97.7931 75.9537 96.8775 75.7156C96.8775 75.1778 96.8774 74.8956 96.8354 74.2079C99.3554 74.8692 100.59 75.2218 102.951 75.9713C102.951 76.6326 102.951 76.9147 102.951 77.4702C102.111 77.2057 101.657 77.0822 100.775 76.8265C100.775 79.1807 100.699 80.08 100.632 82.5135L99.0867 82.0726C99.1035 79.5862 99.1539 78.6693 99.1371 76.3328Z" fill="#1E5799"/>
<path d="M108.041 84.85C107.634 84.0366 107.18 83.2504 106.68 82.4959H106.588L105.067 82.0021C105.025 82.7075 105.009 83.0161 104.967 83.8449C104.286 83.6244 104.076 83.5539 103.488 83.3776C103.639 80.4062 103.732 79.7185 103.791 76.2094C104.941 76.562 105.294 76.6678 106.848 77.1792C109.242 77.9639 110.359 79.5774 110.208 81.1645C110.199 81.3977 110.145 81.6266 110.05 81.8379C109.956 82.0491 109.822 82.2386 109.657 82.3952C109.492 82.5519 109.3 82.6726 109.09 82.7504C108.88 82.8282 108.658 82.8616 108.436 82.8485C108.962 83.6996 109.439 84.5828 109.864 85.4936L108.041 84.85ZM106.68 78.6164L105.269 78.1491C105.227 79.1807 105.202 79.6039 105.143 80.6619L106.554 81.1292C107.739 81.526 108.327 81.2527 108.394 80.4768C108.461 79.7009 107.923 79.022 106.68 78.6164Z" fill="#1E5799"/>
<path d="M111.267 82.9896C111.452 81.3849 111.544 80.706 111.704 78.828L113.14 79.3482C112.989 81.1998 112.905 81.9139 112.737 83.4746C112.586 84.8235 113.056 85.4848 113.804 85.7846C114.551 86.0844 115.106 85.7846 115.173 84.3827C115.257 82.7956 115.299 81.9757 115.374 80.0976L117.004 80.6531C116.912 82.5488 116.87 83.3599 116.777 84.9999C116.651 87.16 115.265 87.7508 113.678 87.1159C112.871 86.8462 112.184 86.281 111.741 85.5235C111.298 84.7659 111.13 83.8666 111.267 82.9896Z" fill="#1E5799"/>
<path d="M117.961 84.9822C117.946 84.4944 118.052 84.0107 118.27 83.5794C118.487 83.148 118.809 82.7841 119.202 82.5237C119.596 82.2633 120.047 82.1155 120.512 82.0952C120.976 82.0749 121.438 82.1826 121.851 82.4077C122.99 82.8845 123.917 83.7942 124.446 84.9558C124.145 85.2267 123.815 85.4604 123.463 85.6523C123.103 84.9513 122.542 84.3869 121.859 84.0388C121.615 83.8984 121.34 83.8296 121.062 83.8398C120.784 83.85 120.513 83.9388 120.279 84.0968C120.045 84.2548 119.856 84.4762 119.732 84.7375C119.608 84.9989 119.554 85.2906 119.574 85.5818C119.546 86.2904 119.724 86.9913 120.086 87.5902C120.448 88.1891 120.976 88.6575 121.599 88.9323C121.868 89.0757 122.173 89.1305 122.472 89.0896C122.772 89.0487 123.053 88.914 123.279 88.703L124.203 90.246C123.547 90.9249 122.565 90.969 121.389 90.4311C120.368 89.9799 119.498 89.2216 118.888 88.2518C118.279 87.282 117.956 86.1443 117.961 84.9822Z" fill="#1E5799"/>
<path d="M126.622 86.1284L124.656 85.2908C124.656 84.6384 124.656 84.3651 124.698 83.7655C126.865 84.7089 127.89 85.1233 130.351 86.2166C130.351 86.7897 130.351 87.0366 130.292 87.7067C129.41 87.3099 128.965 87.116 128.041 86.728C128.041 89.5935 127.974 90.4664 127.882 93.3143L126.437 92.6265C126.538 89.8228 126.605 88.9411 126.622 86.1284Z" fill="#1E5799"/>
<path d="M131.225 86.6134C131.863 86.9044 132.183 87.0454 132.813 87.3452C132.594 90.2372 132.519 91.8419 132.25 95.4127L130.729 94.6721C130.948 91.1277 131.032 89.5759 131.225 86.6134Z" fill="#1E5799"/>
<path d="M133.737 91.4891C133.93 89.1614 135.559 88.5002 137.567 89.4877C138.567 89.8978 139.424 90.6178 140.024 91.5518C140.624 92.4858 140.939 93.5896 140.927 94.7161C140.818 97.0879 139.197 98.9483 137.105 97.9255C135.013 96.9027 133.552 93.808 133.737 91.4891ZM139.373 94.0284C139.419 93.3709 139.263 92.7153 138.927 92.1582C138.591 91.601 138.094 91.1718 137.508 90.9336C136.357 90.3958 135.417 90.6956 135.299 92.1857C135.24 92.9482 135.384 93.713 135.715 94.3948C136.046 95.0766 136.55 95.6487 137.172 96.0475C138.357 96.6118 139.289 95.5273 139.348 94.0284H139.373Z" fill="#1E5799"/>
<path d="M147.445 94.4958C147.445 96.9645 147.555 99.1247 147.521 103.216C147.403 103.145 147.076 102.907 146.773 102.74C145.866 99.7683 145.093 97.4494 143.674 95.2805C143.783 96.797 143.825 98.8073 143.909 101.214C143.212 100.835 142.834 100.632 142.086 100.253C142.086 96.3826 142.086 94.4429 142.036 91.8242L143.195 92.4061C144.489 94.6104 145.471 95.4744 146.605 98.4546C146.463 95.9594 146.521 95.686 146.345 94.0902C146.908 94.3547 146.908 94.2313 147.445 94.4958Z" fill="#1E5799"/>
<path d="M99.935 96.1269C100.019 94.1872 100.053 93.3672 100.12 91.4363C99.2798 92.8117 98.801 93.4113 97.8434 94.7426L97.0706 94.5487C96.3146 92.847 95.945 92.0535 95.2226 90.3165C95.0714 92.1945 94.9874 93.0233 94.8194 94.8484L93.1394 94.4693C93.467 91.3922 93.6098 89.9462 93.9122 86.7721L95.2646 87.0895C96.155 89.3202 96.6254 90.3782 97.583 92.556C98.759 90.8984 99.3134 90.149 100.372 88.4121L101.623 88.7647C101.539 92.0094 101.523 93.2702 101.43 96.5413C100.867 96.3738 100.557 96.2856 99.935 96.1269Z" fill="#1E5799"/>
<path d="M107.983 96.7969C106.529 96.3032 105.589 96.0034 104.396 95.6507C104.169 96.2503 104.051 96.5324 103.799 97.2025C103.178 97.0174 102.859 96.9204 102.203 96.744C103.514 93.7992 103.925 92.7147 105.269 89.8756C105.933 90.0872 106.328 90.2195 107.017 90.4575C108.361 94.1871 109.15 95.5008 110.461 99.4508C109.789 99.1951 109.436 99.0541 108.688 98.7896C108.411 97.952 108.268 97.564 107.983 96.7969ZM107.395 95.2451C106.874 93.8961 106.613 92.9704 106.126 91.833C105.641 92.6735 105.231 93.5589 104.9 94.4781C105.748 94.7073 106.395 94.9101 107.428 95.2451H107.395Z" fill="#1E5799"/>
<path d="M116.668 94.2312C116.617 97.5993 116.668 98.4457 116.617 101.964L115.399 101.435C114.123 98.7455 113.719 97.855 112.417 95.395C112.485 97.3789 112.518 98.1195 112.56 100.262L111.141 99.6889C111.065 96.1621 110.964 95.1746 110.889 91.8418L112.107 92.3267C113.383 94.8396 113.829 95.7742 115.147 98.1812C115.147 96.3473 115.147 95.5978 115.147 93.5699C115.769 93.8609 116.08 93.9931 116.668 94.2312Z" fill="#1E5799"/>
<path d="M118.172 99.2393C118.172 97.5905 118.172 96.8587 118.247 94.9454L119.81 95.6508C119.751 97.5553 119.726 98.2959 119.7 99.9006C119.629 100.44 119.727 100.99 119.978 101.467C120.23 101.944 120.621 102.322 121.095 102.546C122.019 102.978 122.573 102.66 122.615 101.329C122.674 99.7771 122.708 98.966 122.8 97.0262L124.304 97.7316C124.203 99.7242 124.161 100.571 124.102 102.14C124.01 104.159 122.867 105.085 121.036 104.221C120.147 103.775 119.402 103.066 118.893 102.181C118.384 101.295 118.133 100.273 118.172 99.2393Z" fill="#1E5799"/>
<path d="M129.839 106.31L126.63 104.856C126.366 105.332 126.133 105.827 125.933 106.337L124.429 105.649C125.664 102.731 126.386 102.422 127.688 99.3186L129.133 100.006C130.183 104.247 130.754 105.147 132.124 109.132L130.444 108.374C130.183 107.527 130.108 107.113 129.839 106.31ZM129.352 104.944C128.915 103.815 128.722 102.889 128.344 101.567C127.999 102.375 127.615 103.164 127.193 103.93L129.352 104.944Z" fill="#1E5799"/>
<path d="M132.746 101.708L134.3 102.44C134.3 105.561 134.4 105.967 134.384 108.612L137.668 110.102C137.668 110.71 137.668 111.028 137.668 111.654L132.796 109.476C132.687 106.028 132.746 105.517 132.746 101.708Z" fill="#1E5799"/>
<path d="M141.767 67.2867L148.361 63.3807L154.921 80.1771L141.767 67.2867Z" fill="#1E5799"/>
<path d="M177.643 74.0756L171.696 69.1558L162.767 84.7001L177.643 74.0756Z" fill="#1E5799"/>
<path d="M155.971 58.7694L164.833 59.6511L160.415 80.5032L155.971 58.7694Z" fill="#1E5799"/>
<path d="M221.668 9.5002C221.57 9.49816 221.476 9.46122 221.401 9.39548C221.326 9.32974 221.275 9.23915 221.256 9.1387C221.245 9.08187 221.245 9.02334 221.256 8.96656C221.268 8.90978 221.289 8.85593 221.321 8.80822C221.352 8.7605 221.392 8.71989 221.439 8.68882C221.486 8.65774 221.538 8.63683 221.592 8.62732C224.347 8.06303 227.128 7.57809 229.849 7.17251C229.961 7.15615 230.074 7.18689 230.164 7.25799C230.253 7.3291 230.313 7.43472 230.328 7.55164C230.344 7.66856 230.314 7.7872 230.247 7.88145C230.179 7.9757 230.078 8.03785 229.967 8.05421C227.262 8.4598 224.499 8.93591 221.752 9.5002H221.668Z" fill="#1E5799"/>
<path d="M186.312 20.5391C186.201 20.5613 186.086 20.5362 185.992 20.4692C185.898 20.4022 185.834 20.2989 185.812 20.182C185.791 20.0651 185.815 19.9441 185.879 19.8458C185.943 19.7474 186.041 19.6796 186.153 19.6574C196.434 15.312 207.044 11.879 217.871 9.39445C217.981 9.37086 218.096 9.39369 218.19 9.45803C218.284 9.52236 218.351 9.62303 218.375 9.73831C218.387 9.79451 218.389 9.85273 218.379 9.90954C218.37 9.96634 218.35 10.0206 218.32 10.0691C218.29 10.1175 218.252 10.1593 218.206 10.1918C218.161 10.2244 218.11 10.247 218.056 10.2585C207.275 12.7309 196.71 16.1461 186.472 20.4686C186.424 20.5044 186.37 20.5286 186.312 20.5391Z" fill="#1E5799"/>
<path d="M110.208 237.392H100.892C100.781 237.392 100.674 237.346 100.595 237.263C100.516 237.181 100.472 237.069 100.472 236.952C100.472 236.835 100.516 236.723 100.595 236.64C100.674 236.557 100.781 236.511 100.892 236.511H110.208C110.319 236.511 110.426 236.557 110.505 236.64C110.584 236.723 110.628 236.835 110.628 236.952C110.628 237.069 110.584 237.181 110.505 237.263C110.426 237.346 110.319 237.392 110.208 237.392Z" fill="#1E5799"/>
<path d="M95.9026 237.392H62.4622C62.3508 237.392 62.244 237.346 62.1652 237.263C62.0865 237.181 62.0422 237.069 62.0422 236.952C62.0422 236.835 62.0865 236.723 62.1652 236.64C62.244 236.557 62.3508 236.511 62.4622 236.511H95.9026C96.0134 236.513 96.1189 236.56 96.1972 236.642C96.2755 236.725 96.3205 236.835 96.3226 236.952C96.3226 237.069 96.2784 237.181 96.1996 237.263C96.1209 237.346 96.014 237.392 95.9026 237.392Z" fill="#1E5799"/>
<path d="M138.323 122.525C138.569 122.007 138.91 121.545 139.327 121.165C139.744 120.785 140.228 120.496 140.751 120.312C141.274 120.129 141.827 120.055 142.378 120.096C142.928 120.137 143.465 120.291 143.959 120.55C144.453 120.809 144.893 121.167 145.255 121.604C145.616 122.042 145.892 122.55 146.067 123.099C146.242 123.648 146.312 124.228 146.273 124.806C146.234 125.384 146.087 125.948 145.841 126.466V126.537C144.337 129.799 142.85 133.229 141.439 136.597C140.028 139.965 138.675 143.368 137.583 146.754C137.298 147.636 137.054 148.438 136.819 149.284L136.685 149.743C136.652 149.815 136.632 149.893 136.626 149.972C136.584 150.216 136.567 150.465 136.575 150.713C136.689 152.223 137.011 153.708 137.533 155.121C138.771 158.486 140.231 161.756 141.901 164.908L141.951 165.005C142.204 165.474 142.284 166.025 142.176 166.552C142.068 167.079 141.78 167.546 141.367 167.865C140.953 168.184 140.442 168.333 139.931 168.284C139.419 168.235 138.943 167.99 138.591 167.597C135.836 164.75 133.47 161.516 131.561 157.987C130.462 155.996 129.687 153.826 129.267 151.568C129.162 150.868 129.12 150.16 129.141 149.452C129.159 148.742 129.25 148.035 129.41 147.345C129.62 146.348 129.83 145.343 130.082 144.382C131.058 140.561 132.255 136.807 133.669 133.141C135.08 129.517 136.575 126.008 138.331 122.472L138.323 122.525Z" fill="#CB7A63"/>
<path d="M139.54 164.882L138.952 165.34C138.665 165.552 138.448 165.853 138.332 166.201C138.216 166.549 138.207 166.926 138.306 167.28C138.74 168.661 139.503 169.902 140.523 170.886L144.639 165.728L141.103 164.599C140.84 164.513 140.561 164.494 140.289 164.543C140.017 164.592 139.761 164.708 139.54 164.882Z" fill="#CB7A63"/>
<path d="M144.656 165.728L140.54 170.886L145.143 172.596L149.562 168.823L144.656 165.728Z" fill="#CB7A63"/>
<path d="M164.396 95.2276C164.682 95.1659 164.993 95.4833 165.085 95.9418C165.177 96.4003 165.026 96.8235 164.741 96.8852C164.455 96.9469 164.144 96.6295 164.052 96.171C163.959 95.7126 164.111 95.2805 164.396 95.2276Z" fill="#263238"/>
<path d="M165.295 101.285C165.671 101.305 166.047 101.236 166.394 101.083C166.742 100.931 167.052 100.698 167.303 100.403C166.194 99.3946 165.222 98.2318 164.413 96.9469L165.295 101.285Z" fill="#B74D3C"/>
<path d="M162.111 93.9314C162.323 93.6617 162.592 93.4484 162.898 93.309C163.203 93.1695 163.535 93.1079 163.867 93.129H163.951C164.022 93.129 164.091 93.0993 164.141 93.0464C164.192 92.9935 164.22 92.9217 164.22 92.8469C164.22 92.7721 164.192 92.7003 164.141 92.6474C164.091 92.5945 164.022 92.5648 163.951 92.5648C163.539 92.5249 163.123 92.5888 162.739 92.7514C162.354 92.9139 162.013 93.1703 161.742 93.4994C161.699 93.5505 161.675 93.6163 161.675 93.6845C161.674 93.7211 161.679 93.7576 161.692 93.7918C161.705 93.826 161.724 93.8572 161.748 93.8835C161.772 93.9098 161.801 93.9307 161.833 93.945C161.866 93.9593 161.9 93.9667 161.935 93.9666C161.996 93.9789 162.059 93.9663 162.111 93.9314Z" fill="#263238"/>
<path d="M159.213 121.934C151.653 122.013 150.528 117.711 150.528 117.711C152.77 115.418 152.88 111.195 152.401 107.43C153.003 108.325 153.764 109.088 154.644 109.679C155.443 110.248 156.347 110.636 157.298 110.815C158.248 110.994 159.224 110.961 160.162 110.719C160.193 110.728 160.225 110.728 160.255 110.719C160.247 110.795 160.247 110.872 160.255 110.948C159.801 113.964 160.204 117.191 163.22 118.134C163.178 118.099 167.512 121.837 159.213 121.934Z" fill="#CB7A63"/>
<path d="M160.465 109.573C160.372 109.938 160.302 110.309 160.255 110.684C160.225 110.693 160.193 110.693 160.163 110.684C159.225 110.926 158.249 110.959 157.298 110.78C156.347 110.6 155.443 110.213 154.644 109.643C153.765 109.053 153.003 108.29 152.401 107.395C152.292 106.443 152.124 105.508 151.956 104.662L160.154 109.361L160.465 109.573Z" fill="#CB7A63"/>
<path d="M148.235 118.443C148.235 118.443 149.427 114.581 151.225 113.364C153.023 112.147 160.91 113.408 162.145 113.92C163.38 114.431 164.665 117.446 164.665 117.446L148.235 118.443Z" fill="#1E5799"/>
<path d="M147.243 130.548C146.349 134.613 144.092 138.206 140.885 140.67L132.132 133.908C132.132 133.908 137.298 118.998 142.472 117.684C147.747 116.371 148.932 123.23 147.243 130.548Z" fill="#263238"/>
<path opacity="0.2" d="M147.478 129.243C147.411 129.675 147.319 130.125 147.218 130.548C146.328 134.611 144.077 138.203 140.876 140.67L140.414 140.3C140.536 135.749 142.218 131.397 145.152 128.044L147.478 129.243Z" fill="#E8EDF1"/>
<path d="M131.006 130.601L129.897 135.257L140.843 142.681L142.691 139.013L131.006 130.601Z" fill="#1E5799"/>
<path d="M167.067 116.794C165.849 116.582 164.489 116.388 163.094 116.274C158.895 116.065 154.688 116.112 150.494 116.415C147.79 116.624 145.105 117.054 142.464 117.702C144.614 148.782 143.304 164.018 142.833 168.461L172.485 168.126C175.551 142.504 174.703 129.587 173.51 123.318C173.194 121.673 172.408 120.168 171.257 119.002C170.107 117.837 168.645 117.067 167.067 116.794Z" fill="#263238"/>
<path opacity="0.2" d="M172.259 168.126H172.519C174.418 152.079 174.804 141.023 174.527 133.458L161.49 125.523C163.489 146.877 168.798 156.629 172.259 168.126Z" fill="#E8EDF1"/>
<path d="M165.858 103.119C165.834 104.479 165.481 105.81 164.832 106.987C164.182 108.164 163.257 109.148 162.145 109.846C161.574 110.22 160.95 110.496 160.297 110.666C160.267 110.676 160.235 110.676 160.205 110.666C159.267 110.909 158.291 110.941 157.34 110.762C156.389 110.583 155.485 110.196 154.686 109.626C153.807 109.036 153.045 108.272 152.443 107.377C150.965 105.252 150.351 102.422 149.293 98.4281C148.949 97.1435 148.92 95.7882 149.211 94.489C149.501 93.1897 150.1 91.989 150.953 90.999C151.805 90.0091 152.883 89.2622 154.085 88.8282C155.288 88.3943 156.575 88.2875 157.827 88.5178C163.531 89.5759 165.967 97.758 165.858 103.119Z" fill="#CB7A63"/>
<path opacity="0.2" d="M162.103 109.864C161.532 110.237 160.908 110.514 160.255 110.684L160.456 107.157C160.456 107.157 161.708 109.864 162.103 109.864Z" fill="#E8EDF1"/>
<path d="M162.565 100.077C162.455 101.309 162.099 102.504 161.52 103.582C160.941 104.661 160.152 105.599 159.205 106.337C158.952 106.527 158.667 106.664 158.365 106.742C157.407 106.972 156.508 106.108 156.072 105.182C155.572 103.944 155.323 102.611 155.341 101.267C155.232 98.1194 155.601 94.6632 157.718 92.4501C158.185 91.8823 158.839 91.5202 159.549 91.4362C162.262 91.2951 162.75 98.2693 162.565 100.077Z" fill="#263238"/>
<path d="M162.683 88.8264C161.842 87.9673 160.798 87.3587 159.659 87.063C158.052 86.4955 156.379 86.1603 154.686 86.0667C152.974 85.9861 151.292 86.5558 149.948 87.6714C148.52 88.9587 147.84 90.9072 147.21 92.7676L146.068 96.1004C145.759 96.6915 145.627 97.3659 145.686 98.0368C145.746 98.7078 145.996 99.3445 146.403 99.8653C147.445 101.629 148.49 103.392 149.537 105.155C150.024 105.897 150.388 106.72 150.612 107.589C150.716 108.025 150.71 108.481 150.595 108.914C150.48 109.347 150.26 109.741 149.957 110.058C150.485 109.987 150.993 109.803 151.45 109.516C151.907 109.229 152.302 108.846 152.611 108.391C152.653 108.911 152.566 109.434 152.358 109.908C152.151 110.383 151.83 110.793 151.427 111.098C152.648 110.629 153.731 109.832 154.568 108.788C154.395 109.36 154.068 109.868 153.628 110.252C155.308 110.516 156.685 108.929 157.643 107.457C158.827 105.64 159.936 103.348 159.096 101.338C158.819 100.676 158.348 100.112 158.071 99.4421C157.828 98.6989 157.773 97.9024 157.91 97.13C158.046 96.3576 158.371 95.6354 158.852 95.0336C159.823 93.8368 160.985 92.8282 162.288 92.0534C162.288 92.0534 163.959 90.2989 162.683 88.8264Z" fill="#263238"/>
<path d="M161.187 95.8888C162.767 96.3825 163.598 98.8336 163.707 100.385C163.783 102.149 162.691 103.189 161.263 102.043C160.185 101.15 159.415 99.9114 159.071 98.5162C158.667 96.8763 159.608 95.4038 161.187 95.8888Z" fill="#CB7A63"/>
<path d="M158.399 316.022C158.371 316.018 158.345 316.005 158.325 315.984C158.306 315.964 158.293 315.937 158.289 315.907C158.28 315.879 158.281 315.849 158.292 315.821C158.303 315.793 158.323 315.771 158.348 315.758C158.457 315.705 160.49 314.435 161.473 314.691C161.567 314.708 161.657 314.747 161.735 314.805C161.814 314.863 161.879 314.938 161.927 315.026C161.99 315.118 162.023 315.229 162.023 315.343C162.023 315.457 161.99 315.568 161.927 315.661C161.691 316.022 160.994 316.146 160.247 316.163C159.628 316.175 159.009 316.127 158.399 316.022ZM161.129 314.929C160.32 315.051 159.542 315.336 158.835 315.766C159.936 315.907 161.423 315.863 161.691 315.467C161.75 315.405 161.784 315.326 161.691 315.14C161.66 315.088 161.618 315.042 161.569 315.007C161.52 314.973 161.464 314.949 161.406 314.938C161.317 314.925 161.226 314.925 161.137 314.938L161.129 314.929Z" fill="#1E5799"/>
<path d="M158.34 315.996C158.322 315.979 158.308 315.959 158.297 315.936C158.287 315.913 158.282 315.888 158.281 315.863C158.292 314.987 158.588 314.14 159.121 313.465C159.225 313.365 159.349 313.289 159.484 313.243C159.619 313.198 159.762 313.183 159.902 313.201C160.289 313.201 160.423 313.439 160.431 313.597C160.557 314.312 159.188 315.652 158.474 316.004H158.424C158.396 316.01 158.366 316.007 158.34 315.996ZM159.827 313.483C159.643 313.486 159.468 313.565 159.339 313.703C158.915 314.252 158.658 314.921 158.6 315.625C159.323 315.149 160.28 314.082 160.171 313.659C160.171 313.659 160.171 313.5 159.894 313.5H159.818L159.827 313.483Z" fill="#1E5799"/>
<path d="M152.191 301.756L158.063 301.642L157.844 315.872L151.948 315.996L152.191 301.756Z" fill="#CB7A63"/>
<path d="M159.222 315.617C163.287 318.112 164.522 318.2 169.184 319.143C170.2 319.355 169.604 321.938 167.176 321.991C163.161 322.071 162.741 321.886 159.314 321.947C156.382 322.009 153.022 322.221 150.687 322.309C150.618 322.317 150.547 322.317 150.477 322.309C150.366 322.287 150.26 322.242 150.165 322.175C150.071 322.109 149.99 322.024 149.928 321.924C149.866 321.824 149.824 321.713 149.805 321.595C149.785 321.478 149.788 321.358 149.814 321.242L150.847 315.714C150.873 315.594 150.935 315.487 151.025 315.409C151.114 315.331 151.226 315.286 151.342 315.282L157.794 315.158C158.301 315.167 158.796 315.326 159.222 315.617Z" fill="#263238"/>
<path opacity="0.2" d="M152.183 301.765L152.065 309.083L157.954 308.96L158.063 301.65L152.183 301.765Z" fill="#E8EDF1"/>
<path d="M109.183 316.948C109.179 316.978 109.166 317.005 109.147 317.027C109.127 317.049 109.102 317.065 109.074 317.071C109.045 317.078 109.015 317.073 108.989 317.059C108.963 317.044 108.942 317.021 108.931 316.992C108.872 316.886 107.705 314.744 107.973 313.712C108.021 313.52 108.135 313.354 108.293 313.245C108.382 313.178 108.489 313.142 108.599 313.142C108.709 313.142 108.816 313.178 108.906 313.245C109.25 313.501 109.343 314.232 109.351 315.061C109.349 315.694 109.293 316.326 109.183 316.948ZM108.2 314.082C108.296 314.927 108.547 315.745 108.939 316.489C109.091 315.343 109.082 313.783 108.704 313.501C108.654 313.439 108.57 313.404 108.393 313.501C108.342 313.53 108.298 313.572 108.265 313.623C108.232 313.673 108.209 313.731 108.2 313.791C108.192 313.885 108.192 313.98 108.2 314.074V314.082Z" fill="#1E5799"/>
<path d="M109.175 317.01C109.16 317.03 109.141 317.047 109.119 317.058C109.097 317.068 109.073 317.073 109.049 317.071C108.99 317.071 107.369 316.957 106.781 316.137C106.688 316.025 106.618 315.895 106.576 315.754C106.534 315.613 106.521 315.464 106.537 315.317C106.579 314.92 106.772 314.779 106.932 314.779C107.604 314.655 108.872 316.11 109.191 316.851V316.913C109.198 316.946 109.192 316.981 109.175 317.01ZM106.789 315.44C106.799 315.627 106.87 315.805 106.991 315.943C107.507 316.396 108.143 316.673 108.813 316.736C108.368 315.978 107.377 314.973 106.974 315.061C106.974 315.061 106.814 315.061 106.814 315.343V315.44H106.789Z" fill="#1E5799"/>
<path d="M112.224 302.541L117.952 302.85L114.861 317.265L109.099 316.948L112.224 302.541Z" fill="#CB7A63"/>
<path d="M107.705 316.19C106.159 318.147 105.344 319.152 100.834 320.731C99.8424 321.074 100.741 323.561 103.16 323.287C107.159 322.838 104.95 322.891 108.36 322.503C111.275 322.168 114.635 321.938 116.962 321.718C117.038 321.712 117.114 321.697 117.188 321.674C117.298 321.639 117.399 321.581 117.487 321.504C117.574 321.427 117.645 321.332 117.697 321.224C117.748 321.117 117.777 321 117.784 320.88C117.79 320.76 117.774 320.64 117.734 320.528L116.054 315.185C116.017 315.068 115.942 314.968 115.842 314.902C115.743 314.836 115.625 314.809 115.508 314.823L109.108 315.537C108.844 315.543 108.584 315.603 108.344 315.715C108.103 315.827 107.886 315.989 107.705 316.19Z" fill="#263238"/>
<path opacity="0.2" d="M112.215 302.55L110.619 309.956L116.357 310.265L117.953 302.85L112.215 302.55Z" fill="#E8EDF1"/>
<path d="M142.842 168.461C140.907 172.325 139.24 176.329 137.852 180.444C135.677 186.789 134.134 193.355 133.249 200.035C131.569 210.703 130.729 218.656 128.932 226.768C123.371 252.143 109.402 305.75 109.402 305.75L119.792 307.91C119.792 307.91 139.952 245.539 145.051 227.367C149.638 211.012 161.372 168.047 161.372 168.047L142.842 168.461Z" fill="#1E5799"/>
<path opacity="0.5" d="M142.842 168.461C140.907 172.325 139.24 176.329 137.852 180.444C135.677 186.789 134.134 193.355 133.249 200.035C131.569 210.703 130.729 218.656 128.932 226.768C123.371 252.143 109.402 305.75 109.402 305.75L119.792 307.91C119.792 307.91 139.952 245.539 145.051 227.367C149.638 211.012 161.372 168.047 161.372 168.047L142.842 168.461Z" fill="#E8EDF1"/>
<path d="M108.15 303.74V307.602L120.632 308.739C120.632 308.739 121.657 304.499 121.607 304.499L108.15 303.74Z" fill="#1E5799"/>
<path opacity="0.3" d="M155.946 187.814C152.25 201.304 147.546 218.365 145.026 227.323C144.908 227.755 144.774 228.205 144.648 228.681C145.404 213.798 147.689 188.828 154.787 187.753C155.173 187.684 155.569 187.705 155.946 187.814Z" fill="#E8EDF1"/>
<path d="M152.376 168.197C152.376 168.197 150.167 209.213 150.209 228.575C150.209 246.633 150.486 307.69 150.486 307.69L160.457 307.487C160.457 307.487 166.211 245.195 167.613 226.838C168.949 209.451 172.494 168.126 172.494 168.126L152.376 168.197Z" fill="#1E5799"/>
<path opacity="0.5" d="M152.376 168.197C152.376 168.197 150.167 209.213 150.209 228.575C150.209 246.633 150.486 307.69 150.486 307.69L160.457 307.487C160.457 307.487 166.211 245.195 167.613 226.838C168.949 209.451 172.494 168.126 172.494 168.126L152.376 168.197Z" fill="#E8EDF1"/>
<path d="M148.94 304.075L149.352 307.902L161.473 307.655C161.473 307.655 161.96 303.343 161.91 303.343L148.94 304.075Z" fill="#1E5799"/>
<path d="M181.221 146.392C184.069 146.728 186.639 142.751 187.202 139.806C188.168 134.772 185.522 129.825 182.935 125.452L173.628 109.582C173.183 108.823 176.022 113.673 174.468 110.772C173.628 109.15 170.579 109.132 169.361 111.821C172.62 118.09 173.208 123.283 175.131 130.134C175.697 131.69 175.862 133.374 175.61 135.019C174.913 138.008 169.151 135.539 170.57 138.44C171.595 140.573 175.157 145.661 181.221 146.392Z" fill="#CB7A63"/>
<path d="M172.233 119.95C177.273 124.888 179.793 134.816 179.793 134.816L170.839 139.886C170.839 139.886 160.163 130.681 161.599 122.798C162.666 116.759 166.068 113.823 172.233 119.95Z" fill="#263238"/>
<path d="M166.068 137.584L168.873 141.19L181.205 134.102L179.651 130.046L166.068 137.584Z" fill="#1E5799"/>
<path d="M174.946 111.865C174.106 110.102 172.242 106.416 171.418 104.609C171.305 104.302 171.116 104.031 170.872 103.824C170.662 103.698 170.432 103.614 170.192 103.577C168.336 103.216 166.404 102.845 164.589 103.383C164.451 103.414 164.325 103.488 164.228 103.595C164.166 103.702 164.128 103.823 164.119 103.948C163.984 105.032 163.842 106.116 163.699 107.192C163.644 107.43 163.644 107.678 163.699 107.915C163.797 108.134 163.944 108.324 164.127 108.471C165.018 109.282 165.9 110.102 166.782 110.922C167.2 111.377 167.724 111.711 168.302 111.892C169.201 112.094 170.066 111.539 170.914 111.16C171.763 110.781 174.946 111.865 174.946 111.865Z" fill="#CB7A63"/>
</svg>
