<svg width="197" height="136" viewBox="0 0 197 136" fill="none" xmlns="http://www.w3.org/2000/svg">
<path d="M33.7224 106.362C69.3282 125.476 127.057 125.476 162.663 106.362C198.269 87.2487 198.265 56.2634 162.663 37.1497C127.061 18.036 69.3282 18.036 33.7224 37.1497C-1.88339 56.2634 -1.87945 87.2527 33.7224 106.362Z" fill="#F5F5F5"/>
<path d="M44.2661 39.877L13.5381 57.6488V59.1288L41.7051 75.4167L72.4332 57.6488V56.1688L44.2661 39.877Z" fill="#40B3B3"/>
<path opacity="0.15" d="M13.5381 57.6484L41.7051 73.9363V75.4163L13.5381 59.1284V57.6484Z" fill="black"/>
<path opacity="0.1" d="M41.7051 73.9359L72.4331 56.168V57.648L41.7051 75.4159V73.9359Z" fill="black"/>
<path d="M69.6997 50.824L68.4854 53.2207L68.6821 53.3207L69.8965 50.9241L69.6997 50.824Z" fill="#455A64"/>
<path d="M67.4552 50.6376L67.2676 50.7539L68.4518 52.67L68.6394 52.5537L67.4552 50.6376Z" fill="#455A64"/>
<path d="M68.7688 50.4141V56.192C68.768 56.208 68.7628 56.2235 68.7537 56.2367C68.7447 56.25 68.7322 56.2604 68.7175 56.267C68.6775 56.2884 68.6329 56.2996 68.5875 56.2996C68.5422 56.2996 68.4975 56.2884 68.4575 56.267C68.4421 56.261 68.4288 56.2508 68.419 56.2375C68.4093 56.2242 68.4035 56.2084 68.4023 56.192V50.4141H68.7688Z" fill="#455A64"/>
<path d="M73.1309 48.6173C73.1309 49.1481 72.9737 49.667 72.6793 50.1083C72.3849 50.5497 71.9665 50.8936 71.4769 51.0968C70.9874 51.2999 70.4487 51.353 69.929 51.2495C69.4093 51.1459 68.9319 50.8903 68.5572 50.515C68.1825 50.1397 67.9273 49.6615 67.8239 49.1409C67.7206 48.6203 67.7736 48.0807 67.9764 47.5903C68.1792 47.0999 68.5226 46.6808 68.9632 46.3859C69.4038 46.091 69.9218 45.9336 70.4517 45.9336C71.1619 45.9346 71.8428 46.2177 72.345 46.7208C72.8472 47.2239 73.1298 47.9059 73.1309 48.6173Z" fill="#40B3B3"/>
<path opacity="0.2" d="M71.2905 47.9311C71.6372 46.8418 72.0036 46.4155 71.7712 46.2813C71.3275 46.0291 70.8212 45.909 70.3117 45.9352C69.8022 45.9613 69.3108 46.1326 68.8952 46.4289C68.4796 46.7252 68.157 47.1342 67.9655 47.6078C67.774 48.0814 67.7214 48.6 67.814 49.1025C67.9066 49.605 68.1405 50.0706 68.4882 50.4445C68.8359 50.8184 69.2829 51.0852 69.7768 51.2133C70.2706 51.3415 70.7907 51.3258 71.2759 51.168C71.7611 51.0102 72.1913 50.717 72.5158 50.3227C71.7081 50.5556 70.8413 49.344 71.2905 47.9311Z" fill="black"/>
<path d="M68.1153 49.3748C68.1153 49.7479 68.0048 50.1126 67.7979 50.4229C67.5909 50.7331 67.2968 50.9749 66.9527 51.1177C66.6085 51.2605 66.2299 51.2978 65.8645 51.225C65.4992 51.1523 65.1636 50.9726 64.9002 50.7088C64.6369 50.4449 64.4575 50.1088 64.3848 49.7428C64.3122 49.3769 64.3494 48.9976 64.492 48.6529C64.6345 48.3081 64.8759 48.0135 65.1856 47.8062C65.4953 47.5989 65.8595 47.4883 66.232 47.4883C66.7314 47.4883 67.2105 47.687 67.5637 48.0408C67.9169 48.3946 68.1153 48.8745 68.1153 49.3748Z" fill="#40B3B3"/>
<path opacity="0.2" d="M66.2317 47.4883C65.8366 47.4882 65.4516 47.614 65.1325 47.8474C65.0813 48.9959 66.0584 50.1207 65.7826 50.4996C65.5068 50.8785 64.8409 50.6456 64.6006 50.322C64.7665 50.6083 65.0047 50.8458 65.2913 51.0106C65.5778 51.1755 65.9026 51.262 66.2331 51.2613C66.5636 51.2606 66.888 51.1729 67.1739 51.0068C67.4598 50.8408 67.697 50.6024 67.8618 50.3154C68.0266 50.0285 68.1131 49.7032 68.1126 49.3721C68.1122 49.0411 68.0247 48.716 67.8592 48.4296C67.6936 48.1431 67.4557 47.9053 67.1693 47.7401C66.883 47.5749 66.5583 47.488 66.2278 47.4883H66.2317Z" fill="black"/>
<path d="M68.5892 50.8053C70.4975 50.8053 72.0446 49.2556 72.0446 47.344C72.0446 45.4325 70.4975 43.8828 68.5892 43.8828C66.6808 43.8828 65.1338 45.4325 65.1338 47.344C65.1338 49.2556 66.6808 50.8053 68.5892 50.8053Z" fill="#40B3B3"/>
<path opacity="0.1" d="M71.9484 48.1327C71.8179 48.6931 71.55 49.2121 71.169 49.6427C70.7879 50.0733 70.3056 50.4019 69.7658 50.5989C69.226 50.7958 68.6458 50.8548 68.0775 50.7706C67.5092 50.6863 66.9708 50.4615 66.5111 50.1164C66.0514 49.7713 65.6848 49.3168 65.4446 48.7941C65.2044 48.2714 65.098 47.6969 65.1352 47.1227C65.1723 46.5485 65.3518 45.9925 65.6575 45.5053C65.9631 45.018 66.3852 44.6148 66.8855 44.332C66.5935 44.5045 66.3281 44.7186 66.0975 44.9674C65.9257 45.7073 66.002 46.4833 66.3145 47.1754C66.6271 47.8675 67.1585 48.4372 67.8266 48.7965C68.4947 49.1559 69.2624 49.2848 70.0109 49.1634C70.7595 49.0419 71.4473 48.6769 71.9681 48.1248L71.9484 48.1327Z" fill="black"/>
<path d="M18.5042 52.3006L17.2899 54.6973L17.4866 54.7973L18.701 52.4006L18.5042 52.3006Z" fill="#455A64"/>
<path d="M16.2501 52.1102L16.0625 52.2266L17.2467 54.1427L17.4343 54.0263L16.2501 52.1102Z" fill="#455A64"/>
<path d="M17.5695 51.8867V57.6646C17.568 57.681 17.562 57.6966 17.5523 57.7098C17.5426 57.723 17.5295 57.7333 17.5144 57.7396C17.4738 57.7592 17.4294 57.7694 17.3844 57.7694C17.3393 57.7694 17.2949 57.7592 17.2543 57.7396C17.2397 57.7331 17.2272 57.7226 17.2182 57.7094C17.2091 57.6961 17.2039 57.6807 17.2031 57.6646V51.8867H17.5695Z" fill="#455A64"/>
<path d="M21.9307 50.0861C21.9307 50.6169 21.7735 51.1357 21.4791 51.5771C21.1847 52.0184 20.7663 52.3624 20.2768 52.5655C19.7872 52.7686 19.2485 52.8218 18.7288 52.7182C18.2091 52.6147 17.7317 52.3591 17.357 51.9838C16.9823 51.6084 16.7271 51.1302 16.6237 50.6096C16.5204 50.0891 16.5734 49.5494 16.7762 49.0591C16.979 48.5687 17.3224 48.1495 17.763 47.8546C18.2036 47.5597 18.7216 47.4023 19.2515 47.4023C19.962 47.4023 20.6435 47.6851 21.1459 48.1884C21.6484 48.6917 21.9307 49.3743 21.9307 50.0861Z" fill="#40B3B3"/>
<path opacity="0.2" d="M20.0949 49.3994C20.4416 48.3101 20.808 47.8838 20.5756 47.7536C20.1741 47.5222 19.7188 47.4011 19.2557 47.4024C18.8042 47.4021 18.3601 47.5162 17.9644 47.7339C17.5687 47.9516 17.2344 48.266 16.9925 48.6478C16.7505 49.0295 16.6088 49.4663 16.5805 49.9176C16.5521 50.369 16.6381 50.8201 16.8304 51.2292C17.0227 51.6384 17.3151 51.9922 17.6804 52.2578C18.0457 52.5235 18.4721 52.6924 18.92 52.7488C19.3679 52.8053 19.8228 52.7474 20.2424 52.5807C20.662 52.4139 21.0328 52.1437 21.3202 51.795C20.5243 52.0278 19.6418 50.8123 20.0949 49.3994Z" fill="black"/>
<path d="M16.9151 50.8494C16.9151 51.2225 16.8046 51.5873 16.5977 51.8975C16.3907 52.2077 16.0966 52.4495 15.7525 52.5923C15.4083 52.7351 15.0297 52.7724 14.6643 52.6997C14.299 52.6269 13.9634 52.4472 13.7001 52.1834C13.4367 51.9195 13.2573 51.5834 13.1846 51.2174C13.112 50.8515 13.1493 50.4722 13.2918 50.1275C13.4343 49.7827 13.6757 49.4881 13.9854 49.2808C14.2952 49.0735 14.6593 48.9629 15.0318 48.9629C15.2792 48.9624 15.5244 49.0108 15.7531 49.1054C15.9818 49.2001 16.1896 49.339 16.3646 49.5143C16.5396 49.6896 16.6783 49.8977 16.7728 50.1268C16.8672 50.356 16.9156 50.6015 16.9151 50.8494Z" fill="#40B3B3"/>
<path opacity="0.2" d="M15.0318 48.9629C14.637 48.9614 14.252 49.0858 13.9325 49.3181C13.8813 50.4705 14.8545 51.5953 14.5826 51.9703C14.3108 52.3452 13.637 52.1163 13.4006 51.7966C13.5666 52.0829 13.8048 52.3204 14.0913 52.4853C14.3779 52.6501 14.7027 52.7366 15.0331 52.7359C15.3636 52.7352 15.6881 52.6475 15.974 52.4815C16.2599 52.3154 16.4971 52.077 16.6619 51.79C16.8266 51.5031 16.9131 51.1778 16.9127 50.8468C16.9122 50.5157 16.8248 50.1907 16.6592 49.9042C16.4937 49.6177 16.2557 49.3799 15.9694 49.2147C15.683 49.0495 15.3583 48.9626 15.0279 48.9629H15.0318Z" fill="black"/>
<path d="M17.3841 52.274C19.2924 52.274 20.8395 50.7244 20.8395 48.8128C20.8395 46.9012 19.2924 45.3516 17.3841 45.3516C15.4757 45.3516 13.9287 46.9012 13.9287 48.8128C13.9287 50.7244 15.4757 52.274 17.3841 52.274Z" fill="#40B3B3"/>
<path opacity="0.1" d="M20.7448 49.6054C20.6128 50.1641 20.344 50.681 19.9627 51.1097C19.5814 51.5383 19.0995 51.865 18.5606 52.0604C18.0217 52.2558 17.4426 52.3136 16.8758 52.2288C16.3089 52.1439 15.7721 51.919 15.3138 51.5743C14.8554 51.2296 14.49 50.776 14.2505 50.2544C14.0109 49.7328 13.9048 49.1597 13.9417 48.5868C13.9787 48.0139 14.1574 47.4592 14.4619 46.9728C14.7664 46.4864 15.187 46.0836 15.6858 45.8008C15.3877 45.973 15.1157 46.1869 14.8781 46.4362C14.7078 47.1752 14.7848 47.9499 15.0974 48.6407C15.4099 49.3316 15.9406 49.9003 16.6076 50.2593C17.2746 50.6183 18.041 50.7476 18.7886 50.6273C19.5362 50.507 20.2235 50.1437 20.7448 49.5935V49.6054Z" fill="black"/>
<path d="M51.2402 63.9785L55.5309 61.5L59.3803 63.7259L55.0936 66.2005L51.2402 63.9785Z" fill="#F0F0F0"/>
<path d="M21.2256 57.6482L21.2217 44.3203L41.7097 56.1643V69.4961L21.2256 57.6482Z" fill="#F0F0F0"/>
<path d="M21.2217 49.6088L41.7097 61.4607V56.1643L21.2217 44.3203V49.6088Z" fill="#E0E0E0"/>
<path d="M64.7511 56.1648V43.2079L57.0681 41.357V39.877L41.71 56.1648V69.4967L64.7511 56.1648Z" fill="#FAFAFA"/>
<path d="M57.0676 39.877V41.357L66.0311 43.5789V42.0989L57.0676 39.877Z" fill="#263238"/>
<path d="M45.5514 30.2493L66.0315 42.0972L57.068 39.8752L36.584 28.0273L45.5514 30.2493Z" fill="#37474F"/>
<path d="M40.425 58.3962L57.0715 39.8784V38.3984L39.1445 59.1303L40.425 58.3962Z" fill="#37474F"/>
<path d="M36.587 26.5488L57.071 38.3967L39.1756 59.1483L18.66 47.2807L36.587 26.5488Z" fill="#455A64"/>
<path d="M30.1613 45.7441L32.742 47.236V50.9814L30.1613 49.5014V45.7441Z" fill="#263238"/>
<path d="M32.7412 47.236L35.318 45.7441V48.0214L32.7412 50.9814V47.236Z" fill="#37474F"/>
<path d="M32.7422 43.207L29.8936 44.8528V45.5987L32.7422 47.2366L35.5869 45.5987V44.8528L32.7422 43.207Z" fill="#F5F5F5"/>
<path d="M29.8934 45.5994L32.7421 47.2373V46.4914L29.8934 44.8535V45.5994Z" fill="#E0E0E0"/>
<path d="M35.5859 45.5994L32.7412 47.2373V46.4914L35.5859 44.8535V45.5994Z" fill="#EBEBEB"/>
<path d="M30.8506 44.853L32.7418 43.7598L34.633 44.853L32.7418 45.9423L30.8506 44.853Z" fill="#40B3B3"/>
<path d="M32.7418 43.7598V45.9423L30.8506 44.853L32.7418 43.7598Z" fill="#37474F"/>
<path d="M32.7412 43.7598L34.6324 44.853L32.7412 45.9423V43.7598Z" fill="#263238"/>
<path d="M43.3682 59.6513L49.1324 56.3203V60.7643L43.3682 64.0952V59.6513Z" fill="#455A64"/>
<path d="M48.8763 60.6128V56.4688L43.3682 59.6498V63.7977L48.8763 60.6128Z" fill="#E0E0E0"/>
<path d="M49.1324 60.7613L48.8763 60.6113L43.3682 63.7963V64.0923L49.1324 60.7613Z" fill="#37474F"/>
<path d="M43.3682 61.8731L49.1324 58.5421V58.2422L43.3682 61.5732V61.8731Z" fill="#455A64"/>
<path d="M57.4541 51.499L63.2144 48.168V52.6119L57.4541 55.9429V51.499Z" fill="#455A64"/>
<path d="M62.9583 52.4643V48.3203L57.4541 51.5013V55.6493L62.9583 52.4643Z" fill="#E0E0E0"/>
<path d="M63.2144 52.6129L62.9583 52.4629L57.4541 55.6478V55.9438L63.2144 52.6129Z" fill="#37474F"/>
<path d="M57.4541 53.7208L63.2144 50.3898V50.0898L57.4541 53.4248V53.7208Z" fill="#455A64"/>
<path d="M51.2402 63.9796V55.0957L55.5309 52.6172V61.5011L51.2402 63.9796Z" fill="#37474F"/>
<path d="M55.3812 61.3858V52.7031L51.2402 55.0948V63.7775L55.3812 61.3858Z" fill="#455A64"/>
<path d="M55.5316 52.6172L55.3818 52.704V61.3867L55.5316 61.5011V52.6172Z" fill="#263238"/>
<path d="M37.0316 57.9085L34.0215 56.168V60.608L37.0316 62.3485V57.9085Z" fill="#455A64"/>
<path d="M34.2783 60.4585V56.3145L37.0324 57.9089V62.0529L34.2783 60.4585Z" fill="#FAFAFA"/>
<path d="M34.0215 60.607L34.2776 60.457L37.0316 62.0515V62.3475L34.0215 60.607Z" fill="#37474F"/>
<path d="M37.0316 60.1165L34.0215 58.3878V58.0879L37.0316 59.8165V60.1165Z" fill="#455A64"/>
<path d="M34.2783 56.3145L37.0324 57.9089V58.7653L34.2783 57.1827V56.3145Z" fill="#F5F5F5"/>
<path d="M28.0697 52.7249L25.0596 50.9844V55.4283L28.0697 57.1688V52.7249Z" fill="#455A64"/>
<path d="M25.3193 55.2768V51.1328L28.0695 52.7233V56.8673L25.3193 55.2768Z" fill="#FAFAFA"/>
<path d="M25.0596 55.4254L25.3196 55.2754L28.0697 56.8659V57.1658L25.0596 55.4254Z" fill="#37474F"/>
<path d="M28.0697 54.929L25.0596 53.2003V52.9004L28.0697 54.629V54.929Z" fill="#455A64"/>
<path d="M25.3193 51.1328L28.0695 52.7233V53.5442L25.3193 51.9656V51.1328Z" fill="#F5F5F5"/>
<path d="M150.847 38.584L120.119 56.3558V57.8358L150.847 75.6077L181.579 57.8358V56.3558L150.847 38.584Z" fill="#40B3B3"/>
<path opacity="0.15" d="M120.119 56.3535L150.851 74.1254L150.847 75.6054L120.119 57.8335V56.3535Z" fill="black"/>
<path opacity="0.1" d="M150.852 74.1254L181.58 56.3535V57.8335L150.848 75.6054L150.852 74.1254Z" fill="black"/>
<path d="M178.93 51.0584L177.716 53.4551L177.913 53.5551L179.127 51.1585L178.93 51.0584Z" fill="#455A64"/>
<path d="M176.995 50.1973L176.808 50.3145L178 52.23L178.188 52.1128L176.995 50.1973Z" fill="#455A64"/>
<path d="M178.006 50.6504V56.4283C178.005 56.4443 178 56.4598 177.991 56.473C177.982 56.4863 177.969 56.4968 177.955 56.5033C177.915 56.5247 177.87 56.5359 177.825 56.5359C177.779 56.5359 177.735 56.5247 177.695 56.5033C177.68 56.497 177.667 56.4866 177.657 56.4734C177.647 56.4602 177.641 56.4446 177.64 56.4283V50.6504H178.006Z" fill="#455A64"/>
<path d="M182.367 48.8556C182.367 49.3864 182.21 49.9053 181.916 50.3466C181.621 50.7879 181.203 51.1319 180.713 51.3351C180.224 51.5382 179.685 51.5913 179.165 51.4878C178.646 51.3842 178.168 51.1286 177.794 50.7533C177.419 50.378 177.164 49.8998 177.06 49.3792C176.957 48.8586 177.01 48.319 177.213 47.8286C177.416 47.3382 177.759 46.9191 178.2 46.6242C178.64 46.3293 179.158 46.1719 179.688 46.1719C180.399 46.1719 181.08 46.4546 181.583 46.9579C182.085 47.4612 182.367 48.1438 182.367 48.8556Z" fill="#40B3B3"/>
<path opacity="0.2" d="M180.527 48.1698C180.874 47.0805 181.244 46.6542 181.008 46.5201C180.564 46.2684 180.057 46.1488 179.548 46.1755C179.039 46.2022 178.547 46.374 178.132 46.6707C177.717 46.9675 177.395 47.3768 177.204 47.8505C177.013 48.3243 176.961 48.8428 177.054 49.3452C177.147 49.8476 177.381 50.3129 177.729 50.6865C178.077 51.0601 178.524 51.3264 179.018 51.4541C179.512 51.5819 180.032 51.5657 180.517 51.4076C181.002 51.2494 181.432 50.9559 181.756 50.5614C180.961 50.7943 180.082 49.5708 180.527 48.1698Z" fill="black"/>
<path d="M177.352 49.6131C177.352 49.9862 177.241 50.3509 177.034 50.6612C176.827 50.9714 176.533 51.2132 176.189 51.356C175.845 51.4988 175.466 51.5361 175.101 51.4633C174.736 51.3905 174.4 51.2109 174.137 50.947C173.873 50.6832 173.694 50.3471 173.621 49.9811C173.548 49.6152 173.586 49.2358 173.728 48.8911C173.871 48.5464 174.112 48.2518 174.422 48.0445C174.732 47.8372 175.096 47.7266 175.468 47.7266C175.968 47.7266 176.447 47.9253 176.8 48.2791C177.153 48.6329 177.352 49.1127 177.352 49.6131Z" fill="#40B3B3"/>
<path opacity="0.2" d="M175.468 47.7266C175.073 47.7271 174.688 47.8528 174.369 48.0857C174.318 49.2342 175.295 50.359 175.023 50.7379C174.751 51.1168 174.077 50.8839 173.841 50.5603C174.007 50.8465 174.245 51.084 174.532 51.2489C174.818 51.4138 175.143 51.5002 175.474 51.4996C175.804 51.4989 176.129 51.4112 176.414 51.2451C176.7 51.0791 176.938 50.8406 177.102 50.5537C177.267 50.2668 177.354 49.9414 177.353 49.6104C177.353 49.2794 177.265 48.9543 177.1 48.6679C176.934 48.3814 176.696 48.1436 176.41 47.9784C176.123 47.8131 175.799 47.7263 175.468 47.7266Z" fill="black"/>
<path d="M177.825 51.0416C179.733 51.0416 181.28 49.492 181.28 47.5804C181.28 45.6688 179.733 44.1191 177.825 44.1191C175.916 44.1191 174.369 45.6688 174.369 47.5804C174.369 49.492 175.916 51.0416 177.825 51.0416Z" fill="#40B3B3"/>
<path opacity="0.1" d="M181.186 48.3867C181.052 48.945 180.782 49.4613 180.4 49.889C180.017 50.3166 179.535 50.6423 178.995 50.8367C178.456 51.0311 177.877 51.088 177.31 51.0024C176.743 50.9168 176.207 50.6913 175.749 50.3463C175.291 50.0012 174.926 49.5475 174.686 49.0259C174.447 48.5043 174.341 47.9312 174.377 47.3582C174.414 46.7853 174.592 46.2305 174.896 45.7438C175.2 45.2572 175.62 44.8539 176.119 44.5703C175.818 44.7402 175.544 44.9544 175.307 45.2057C175.135 45.9456 175.212 46.7215 175.524 47.4136C175.837 48.1057 176.368 48.6755 177.036 49.0348C177.704 49.3941 178.472 49.523 179.221 49.4016C179.969 49.2802 180.657 48.9152 181.178 48.3631L181.186 48.3867Z" fill="black"/>
<path d="M125.075 50.9334L123.86 53.3301L124.057 53.4301L125.271 51.0335L125.075 50.9334Z" fill="#455A64"/>
<path d="M123.153 50.2637L122.966 50.3809L124.158 52.2964L124.346 52.1792L123.153 50.2637Z" fill="#455A64"/>
<path d="M124.151 50.5254V56.3033C124.149 56.3195 124.143 56.3349 124.133 56.3481C124.123 56.3612 124.11 56.3716 124.095 56.3783C124.055 56.3979 124.01 56.408 123.965 56.408C123.92 56.408 123.876 56.3979 123.835 56.3783C123.821 56.3708 123.81 56.3601 123.801 56.3471C123.792 56.334 123.786 56.319 123.784 56.3033V50.5254H124.151Z" fill="#455A64"/>
<path d="M128.512 48.7248C128.512 49.2555 128.355 49.7744 128.06 50.2158C127.766 50.6571 127.347 51.0011 126.858 51.2042C126.368 51.4073 125.83 51.4605 125.31 51.3569C124.79 51.2534 124.313 50.9978 123.938 50.6224C123.563 50.2471 123.308 49.7689 123.205 49.2483C123.101 48.7277 123.154 48.1881 123.357 47.6977C123.56 47.2073 123.903 46.7882 124.344 46.4933C124.785 46.1984 125.303 46.041 125.833 46.041C126.543 46.0421 127.224 46.3251 127.726 46.8282C128.228 47.3313 128.511 48.0133 128.512 48.7248Z" fill="#40B3B3"/>
<path opacity="0.2" d="M126.672 48.0392C127.019 46.9499 127.385 46.5237 127.153 46.3895C126.709 46.1378 126.203 46.0182 125.694 46.0446C125.185 46.0711 124.693 46.2425 124.278 46.5389C123.863 46.8352 123.541 47.244 123.349 47.7175C123.158 48.1909 123.105 48.7091 123.198 49.2114C123.29 49.7137 123.524 50.1791 123.871 50.553C124.219 50.9269 124.665 51.1937 125.159 51.3222C125.652 51.4507 126.172 51.4354 126.657 51.2782C127.142 51.121 127.573 50.8284 127.897 50.4348C127.105 50.6637 126.223 49.4521 126.672 48.0392Z" fill="black"/>
<path d="M123.496 49.4841C123.497 49.8574 123.387 50.2225 123.181 50.5333C122.974 50.844 122.68 51.0864 122.336 51.2298C121.992 51.3732 121.613 51.4112 121.248 51.3388C120.882 51.2665 120.546 51.0871 120.282 50.8234C120.019 50.5598 119.839 50.2236 119.766 49.8576C119.693 49.4915 119.73 49.112 119.872 48.7671C120.015 48.4221 120.256 48.1272 120.566 47.9198C120.876 47.7123 121.24 47.6016 121.613 47.6016C122.112 47.6016 122.59 47.7998 122.943 48.1527C123.296 48.5056 123.495 48.9845 123.496 49.4841Z" fill="#40B3B3"/>
<path opacity="0.2" d="M121.613 47.5957C121.218 47.5942 120.833 47.7186 120.513 47.9509C120.462 49.1033 121.439 50.2242 121.163 50.6031C120.888 50.982 120.218 50.7491 119.981 50.4294C120.147 50.7157 120.386 50.9532 120.672 51.1181C120.959 51.2829 121.283 51.3694 121.614 51.3687C121.944 51.3681 122.269 51.2803 122.555 51.1143C122.841 50.9482 123.078 50.7098 123.243 50.4228C123.407 50.1359 123.494 49.8106 123.493 49.4796C123.493 49.1486 123.406 48.8235 123.24 48.537C123.074 48.2505 122.837 48.0127 122.55 47.8475C122.264 47.6823 121.939 47.5955 121.609 47.5957H121.613Z" fill="black"/>
<path d="M123.965 50.9127C125.874 50.9127 127.421 49.363 127.421 47.4515C127.421 45.5399 125.874 43.9902 123.965 43.9902C122.057 43.9902 120.51 45.5399 120.51 47.4515C120.51 49.363 122.057 50.9127 123.965 50.9127Z" fill="#40B3B3"/>
<path opacity="0.1" d="M127.33 48.244C127.199 48.804 126.931 49.3225 126.549 49.7524C126.168 50.1824 125.685 50.5104 125.146 50.7068C124.606 50.9031 124.026 50.9616 123.458 50.877C122.89 50.7924 122.352 50.5673 121.893 50.2222C121.433 49.877 121.067 49.4226 120.827 48.9C120.587 48.3775 120.481 47.8033 120.518 47.2293C120.555 46.6553 120.735 46.0996 121.04 45.6125C121.345 45.1254 121.767 44.7223 122.267 44.4395C121.968 44.6104 121.696 44.8245 121.46 45.0749C121.291 45.8139 121.37 46.5878 121.683 47.2778C121.996 47.9678 122.527 48.5356 123.194 48.8942C123.861 49.2528 124.626 49.3822 125.374 49.2626C126.121 49.143 126.808 48.781 127.33 48.2322V48.244Z" fill="black"/>
<path d="M157.037 30.8535L159.614 32.3454V35.329L157.037 33.8372V30.8535Z" fill="#E0E0E0"/>
<path d="M159.614 32.3454L162.195 30.8535V36.8169L159.614 35.329V32.3454Z" fill="#F0F0F0"/>
<path d="M159.614 28.3184L156.77 29.9602V30.7061L159.614 32.3479L162.463 30.7061V29.9602L159.614 28.3184Z" fill="#455A64"/>
<path d="M156.77 30.7049L159.614 32.3467V31.6008L156.77 29.959V30.7049Z" fill="#37474F"/>
<path d="M162.463 30.7049L159.614 32.3467V31.6008L162.463 29.959V30.7049Z" fill="#263238"/>
<path d="M157.723 29.9584L159.614 28.8691L161.509 29.9584L159.614 31.0516L157.723 29.9584Z" fill="#40B3B3"/>
<path d="M159.614 28.8691V31.0516L157.723 29.9584L159.614 28.8691Z" fill="#37474F"/>
<path d="M159.614 28.8691L161.509 29.9584L159.614 31.0516V28.8691Z" fill="#263238"/>
<path d="M150.852 60.7986L150.848 47.4707L158.519 51.9107V65.2386L150.852 60.7986Z" fill="#F0F0F0"/>
<path d="M150.848 47.4707L158.519 51.9107V57.219L150.848 52.7869V47.4707Z" fill="#E0E0E0"/>
<path d="M173.897 56.3558V43.0279L166.199 38.584L158.52 51.9119V65.2398L173.897 56.3558Z" fill="#FAFAFA"/>
<path d="M157.251 54.1314L166.199 38.5816V37.1016L155.971 54.8734L157.251 54.1314Z" fill="#37474F"/>
<path d="M150.848 28.2188L166.198 37.1027L155.97 54.8745L150.852 51.9106L150.848 28.2188Z" fill="#455A64"/>
<path d="M166.197 38.5816L175.177 43.7635L176.457 43.0255L166.197 37.1016V38.5816Z" fill="#263238"/>
<path d="M169.408 50.34L172.418 48.6113V53.0553L169.408 54.7839V50.34Z" fill="#455A64"/>
<path d="M172.162 52.9038V48.7598L169.408 50.3384V54.4824L172.162 52.9038Z" fill="#E0E0E0"/>
<path d="M172.418 53.0562L172.162 52.9062L169.408 54.4849V54.7849L172.418 53.0562Z" fill="#37474F"/>
<path d="M169.408 52.5618L172.418 50.8331V50.5332L169.408 52.2618V52.5618Z" fill="#455A64"/>
<path d="M159.961 55.799L162.971 54.0703V58.5103L159.961 60.2429V55.799Z" fill="#455A64"/>
<path d="M162.715 58.3647V54.2168L159.961 55.7994V59.9434L162.715 58.3647Z" fill="#E0E0E0"/>
<path d="M162.971 58.5113L162.715 58.3652L159.961 59.9439V60.2439L162.971 58.5113Z" fill="#37474F"/>
<path d="M159.961 58.0208L162.971 56.2921V55.9922L159.961 57.7208V58.0208Z" fill="#455A64"/>
<path d="M164.279 45.2474L168.121 43.0254V46.3564L164.279 48.5784V45.2474Z" fill="#455A64"/>
<path d="M167.865 46.2069V43.1719L164.279 45.2478V48.2828L167.865 46.2069Z" fill="#E0E0E0"/>
<path d="M168.121 46.359L167.865 46.209L164.279 48.2849V48.5809L168.121 46.359Z" fill="#37474F"/>
<path d="M175.177 43.7634H173.896V43.0254L175.177 43.7634Z" fill="black"/>
<path d="M164.055 62.0343V53.1504L168.345 50.6719V59.5558L164.055 62.0343Z" fill="#37474F"/>
<path d="M168.196 59.4405V50.7578L164.055 53.1495V61.8322L168.196 59.4405Z" fill="#455A64"/>
<path d="M168.345 50.6719L168.195 50.7587V59.4414L168.345 59.5558V50.6719Z" fill="#263238"/>
<path d="M150.848 60.7986V47.4707L143.181 51.9107V65.2386L150.848 60.7986Z" fill="#FAFAFA"/>
<path d="M150.848 47.4707L143.181 51.9107V57.219L150.852 52.7869L150.848 47.4707Z" fill="#F5F5F5"/>
<path d="M127.803 56.3558V43.0279L135.498 38.584L143.181 51.9119V65.2398L127.803 56.3558Z" fill="#EBEBEB"/>
<path d="M144.449 54.1314L135.497 38.5816V37.1016L145.729 54.8734L144.449 54.1314Z" fill="#455A64"/>
<path d="M150.847 28.2188L135.497 37.1027L145.729 54.8745L150.847 51.9106V28.2188Z" fill="#37474F"/>
<path d="M135.497 38.5816L126.522 43.7635L125.241 43.0255L135.497 37.1016V38.5816Z" fill="#263238"/>
<path d="M133.373 50.6798L130.363 48.9512V53.3951L133.373 55.1198V50.6798Z" fill="#455A64"/>
<path d="M130.62 53.2436V49.0957L133.374 50.6783V54.8223L130.62 53.2436Z" fill="#FAFAFA"/>
<path d="M130.62 49.0957L133.374 50.6902V51.2387L130.62 49.6561V49.0957Z" fill="#F5F5F5"/>
<path d="M137.854 53.2812L140.608 54.8757V55.4243L137.854 53.8417V53.2812Z" fill="#F5F5F5"/>
<path d="M130.363 53.3941L130.619 53.2441L133.373 54.8228V55.1188L130.363 53.3941Z" fill="#37474F"/>
<path d="M133.373 52.9016L130.363 51.173V50.873L133.373 52.6017V52.9016Z" fill="#455A64"/>
<path d="M137.42 45.2474L133.578 43.0254V46.3564L137.42 48.5784V45.2474Z" fill="#455A64"/>
<path d="M133.835 46.2069V43.1719L137.42 45.2478V48.2828L133.835 46.2069Z" fill="#FAFAFA"/>
<path d="M133.835 43.1719L137.42 45.2478V45.7964L133.835 43.7363V43.1719Z" fill="#F5F5F5"/>
<path d="M133.578 46.359L133.834 46.209L137.42 48.2849V48.5809L133.578 46.359Z" fill="#37474F"/>
<path d="M126.522 43.7634H127.803V43.0254L126.522 43.7634Z" fill="black"/>
<path d="M140.608 54.8733L137.598 53.1328V57.5728L140.608 59.3133V54.8733Z" fill="#455A64"/>
<path d="M137.854 57.4253V53.2812L140.608 54.8757V59.0197L137.854 57.4253Z" fill="#FAFAFA"/>
<path d="M137.598 57.5738L137.854 57.4238L140.608 59.0183V59.3143L137.598 57.5738Z" fill="#37474F"/>
<path d="M140.608 57.0813L137.598 55.3527V55.0527L140.608 56.7814V57.0813Z" fill="#455A64"/>
<path d="M137.854 53.2812L140.608 54.8757V55.4243L137.854 53.8417V53.2812Z" fill="#F5F5F5"/>
<path d="M155.97 54.8744L152.124 52.6484V56.7451L155.97 58.967V54.8744Z" fill="#263238"/>
<path d="M152.36 56.6075V52.7871L155.969 54.8749V58.6953L152.36 56.6075Z" fill="#FAFAFA"/>
<path d="M152.36 52.7871V53.6751L155.969 55.7668V54.8749L152.36 52.7871Z" fill="#F0F0F0"/>
<path d="M152.124 56.7456L152.36 56.6074L155.969 58.6952V58.9675L152.124 56.7456Z" fill="#37474F"/>
<path d="M152.124 54.6987L152.36 54.5605L155.969 56.6483V56.9246L152.124 54.6987Z" fill="#37474F"/>
<path d="M153.969 57.8095L154.205 57.9437V53.851L153.969 53.7129V57.8095Z" fill="#37474F"/>
<path d="M148.22 63.7778L148.902 63.3832C149.089 62.2733 149.117 61.1423 148.984 60.0245C148.642 57.846 147.156 57.0922 146.62 57.3092C146.085 57.5263 145.958 58.1735 146.932 59.4325C147.811 60.7069 148.263 62.229 148.22 63.7778Z" fill="#40B3B3"/>
<g opacity="0.2">
<path d="M148.22 63.7778L148.902 63.3832C149.089 62.2733 149.117 61.1423 148.984 60.0245C148.642 57.846 147.156 57.0922 146.62 57.3092C146.085 57.5263 145.958 58.1735 146.932 59.4325C147.811 60.7069 148.263 62.229 148.22 63.7778Z" fill="black"/>
</g>
<path d="M148.468 62.9256C148.462 62.9252 148.455 62.9233 148.449 62.9202C148.443 62.9171 148.438 62.9129 148.434 62.9076C148.43 62.9024 148.427 62.8964 148.426 62.89C148.424 62.8836 148.424 62.8769 148.425 62.8704C148.708 60.83 147.889 58.5922 146.967 57.6884C146.958 57.6795 146.953 57.6674 146.953 57.6549C146.953 57.6423 146.958 57.6302 146.967 57.6213C146.976 57.6124 146.988 57.6074 147 57.6074C147.013 57.6074 147.025 57.6124 147.034 57.6213C147.972 58.5369 148.807 60.8102 148.523 62.8862C148.522 62.8924 148.52 62.8984 148.517 62.9038C148.514 62.9092 148.509 62.9139 148.504 62.9176C148.499 62.9213 148.493 62.9239 148.487 62.9252C148.481 62.9266 148.474 62.9268 148.468 62.9256Z" fill="white"/>
<path d="M146.329 64.8871C146.219 64.9502 145.998 64.816 145.912 64.7568C145.767 64.6566 145.65 64.5207 145.573 64.3622C145.485 64.1836 145.455 63.9824 145.486 63.786C145.503 63.6819 145.527 63.5791 145.557 63.4781C145.589 63.3755 145.616 63.2768 145.644 63.1782C145.679 63.0811 145.694 62.9775 145.687 62.8743C145.66 62.775 145.613 62.6822 145.55 62.6015C145.486 62.5208 145.407 62.4538 145.317 62.4046C145.215 62.3459 145.129 62.2643 145.065 62.1663C145.001 62.0683 144.96 61.9567 144.946 61.8402C144.959 61.6486 145.035 61.4667 145.163 61.3232C145.281 61.1733 145.419 61.043 145.525 60.8852C145.598 60.8001 145.641 60.6937 145.648 60.5819C145.655 60.4702 145.626 60.3592 145.565 60.2655C145.465 60.1124 145.378 59.9514 145.305 59.784C145.269 59.7001 145.258 59.6076 145.272 59.5174C145.287 59.4273 145.327 59.3432 145.388 59.2749C145.447 59.2301 145.515 59.1976 145.588 59.1793C145.66 59.161 145.735 59.1573 145.809 59.1684C145.949 59.1844 146.084 59.2316 146.203 59.3065C146.597 59.5236 146.818 59.9893 147.231 60.155C147.395 60.2074 147.562 60.2483 147.732 60.2774C147.817 60.2925 147.898 60.3256 147.969 60.3746C148.041 60.4236 148.101 60.4874 148.146 60.5615C148.299 60.8654 148.016 61.2404 148.122 61.564C148.228 61.8876 148.496 61.9586 148.65 62.2191C148.716 62.3308 148.742 62.4615 148.725 62.5901C148.711 62.8097 148.657 63.025 148.567 63.2255C148.464 63.4224 148.348 63.6123 148.22 63.7939L146.329 64.8871Z" fill="#40B3B3"/>
<g opacity="0.1">
<path d="M146.329 64.8871C146.219 64.9502 145.998 64.816 145.912 64.7568C145.767 64.6566 145.65 64.5207 145.573 64.3622C145.485 64.1836 145.455 63.9824 145.486 63.786C145.503 63.6819 145.527 63.5791 145.557 63.4781C145.589 63.3755 145.616 63.2768 145.644 63.1782C145.679 63.0811 145.694 62.9775 145.687 62.8743C145.66 62.775 145.613 62.6822 145.55 62.6015C145.486 62.5208 145.407 62.4538 145.317 62.4046C145.215 62.3459 145.129 62.2643 145.065 62.1663C145.001 62.0683 144.96 61.9567 144.946 61.8402C144.959 61.6486 145.035 61.4667 145.163 61.3232C145.281 61.1733 145.419 61.043 145.525 60.8852C145.598 60.8001 145.641 60.6937 145.648 60.5819C145.655 60.4702 145.626 60.3592 145.565 60.2655C145.465 60.1124 145.378 59.9514 145.305 59.784C145.269 59.7001 145.258 59.6076 145.272 59.5174C145.287 59.4273 145.327 59.3432 145.388 59.2749C145.447 59.2301 145.515 59.1976 145.588 59.1793C145.66 59.161 145.735 59.1573 145.809 59.1684C145.949 59.1844 146.084 59.2316 146.203 59.3065C146.597 59.5236 146.818 59.9893 147.231 60.155C147.395 60.2074 147.562 60.2483 147.732 60.2774C147.817 60.2925 147.898 60.3256 147.969 60.3746C148.041 60.4236 148.101 60.4874 148.146 60.5615C148.299 60.8654 148.016 61.2404 148.122 61.564C148.228 61.8876 148.496 61.9586 148.65 62.2191C148.716 62.3308 148.742 62.4615 148.725 62.5901C148.711 62.8097 148.657 63.025 148.567 63.2255C148.464 63.4224 148.348 63.6123 148.22 63.7939L146.329 64.8871Z" fill="black"/>
</g>
<path d="M147.437 64.2989C147.424 64.2971 147.413 64.2911 147.404 64.2817C147.395 64.2724 147.39 64.2603 147.389 64.2476C147.472 62.3138 146.562 60.1786 145.9 59.559C145.895 59.5546 145.892 59.5493 145.889 59.5435C145.886 59.5376 145.885 59.5313 145.885 59.5249C145.885 59.5185 145.886 59.5121 145.888 59.5061C145.89 59.5001 145.894 59.4946 145.898 59.4899C145.902 59.4853 145.908 59.4815 145.914 59.4789C145.919 59.4763 145.926 59.4748 145.932 59.4746C145.939 59.4744 145.945 59.4755 145.951 59.4778C145.957 59.4801 145.962 59.4835 145.967 59.488C146.641 60.1194 147.571 62.2901 147.488 64.2516C147.487 64.2645 147.481 64.2765 147.472 64.2853C147.462 64.2941 147.45 64.299 147.437 64.2989Z" fill="white"/>
<path d="M147.144 62.0131C146.686 61.8885 146.216 61.8131 145.742 61.7881C145.735 61.7881 145.729 61.7868 145.723 61.7842C145.717 61.7816 145.711 61.7777 145.707 61.7729C145.702 61.7681 145.699 61.7624 145.697 61.7562C145.695 61.7499 145.694 61.7434 145.695 61.7368C145.695 61.7239 145.701 61.7118 145.711 61.7031C145.72 61.6943 145.733 61.6894 145.746 61.6895C146.228 61.7146 146.707 61.7927 147.172 61.9223C147.178 61.9241 147.183 61.9271 147.188 61.931C147.193 61.935 147.197 61.9399 147.2 61.9454C147.203 61.9509 147.205 61.9569 147.205 61.9631C147.206 61.9693 147.205 61.9756 147.204 61.9815C147.199 61.993 147.191 62.0025 147.18 62.0083C147.169 62.0141 147.156 62.0158 147.144 62.0131Z" fill="white"/>
<path d="M164.055 62.0332L168.345 59.5547L172.195 61.7806L167.904 64.2552L164.055 62.0332Z" fill="#F0F0F0"/>
<path d="M94.6704 68.4727L57.2168 90.132V91.7975L96.1085 114.29L133.558 92.6302V90.9647L94.6704 68.4727Z" fill="#40B3B3"/>
<path d="M111.955 98.4645L116.25 100.979L123.464 96.8069L119.157 94.3008L111.955 98.4645Z" fill="#F0F0F0"/>
<path opacity="0.15" d="M57.2168 90.1348L96.1085 112.627V114.292L57.2168 91.8003V90.1348Z" fill="black"/>
<path opacity="0.1" d="M96.1094 112.624L133.559 90.9648V92.6303L96.1094 114.29V112.624Z" fill="black"/>
<path d="M129.351 83.5907L127.682 86.8848L127.952 87.0223L129.621 83.7282L129.351 83.5907Z" fill="#263238"/>
<path d="M126.25 83.3109L125.995 83.4688L127.623 86.103L127.878 85.9451L126.25 83.3109Z" fill="#263238"/>
<path d="M128.05 83.0078V90.9446C128.048 90.9668 128.04 90.988 128.027 91.006C128.013 91.024 127.996 91.0382 127.975 91.0472C127.92 91.0756 127.858 91.0904 127.796 91.0904C127.734 91.0904 127.672 91.0756 127.617 91.0472C127.597 91.038 127.58 91.0237 127.567 91.0056C127.555 90.9876 127.547 90.9665 127.546 90.9446V83.0078H128.05Z" fill="#263238"/>
<path d="M130.372 84.22C132.405 84.22 134.052 82.5697 134.052 80.5338C134.052 78.498 132.405 76.8477 130.372 76.8477C128.34 76.8477 126.692 78.498 126.692 80.5338C126.692 82.5697 128.34 84.22 130.372 84.22Z" fill="#455A64"/>
<path d="M131.526 79.596C131.998 78.0963 132.507 77.5122 132.184 77.3306C131.574 76.9847 130.879 76.8202 130.179 76.8565C129.48 76.8928 128.805 77.1283 128.234 77.5355C127.664 77.9426 127.221 78.5045 126.958 79.155C126.695 79.8054 126.623 80.5175 126.751 81.2076C126.878 81.8976 127.199 82.5369 127.677 83.0504C128.154 83.5638 128.768 83.9301 129.446 84.1061C130.125 84.2821 130.839 84.2606 131.505 84.044C132.171 83.8275 132.762 83.4249 133.208 82.8836C132.121 83.1993 130.911 81.5378 131.526 79.596Z" fill="#37474F"/>
<path d="M124.575 84.1702C126.002 84.1702 127.16 83.0111 127.16 81.5812C127.16 80.1513 126.002 78.9922 124.575 78.9922C123.147 78.9922 121.99 80.1513 121.99 81.5812C121.99 83.0111 123.147 84.1702 124.575 84.1702Z" fill="#455A64"/>
<path d="M124.575 78.9883C124.032 78.9876 123.502 79.1589 123.062 79.4777C122.995 81.0563 124.334 82.6034 123.96 83.1244C123.586 83.6453 122.66 83.3217 122.341 82.8836C122.569 83.2754 122.897 83.6001 123.29 83.8253C123.683 84.0504 124.129 84.168 124.582 84.1663C125.035 84.1646 125.48 84.0437 125.871 83.8156C126.263 83.5876 126.588 83.2604 126.813 82.8669C127.039 82.4735 127.158 82.0275 127.157 81.5737C127.156 81.1199 127.037 80.6743 126.81 80.2814C126.583 79.8886 126.257 79.5623 125.865 79.3354C125.473 79.1084 125.028 78.9887 124.575 78.9883Z" fill="#37474F"/>
<path d="M132.423 79.8708C133.025 77.3167 131.446 74.7574 128.896 74.1546C126.346 73.5518 123.791 75.1336 123.189 77.6878C122.587 80.2419 124.167 82.8012 126.717 83.404C129.266 84.0069 131.821 82.425 132.423 79.8708Z" fill="#455A64"/>
<path d="M132.428 79.8718C132.244 80.6335 131.873 81.3374 131.35 81.9203C130.827 82.5032 130.168 82.947 129.431 83.2119C128.695 83.4767 127.904 83.5543 127.13 83.4378C126.357 83.3212 125.624 83.0141 124.998 82.544C124.372 82.0739 123.872 81.4555 123.543 80.7443C123.214 80.033 123.067 79.2511 123.114 78.4688C123.161 77.6864 123.402 76.928 123.814 76.2616C124.225 75.5952 124.796 75.0416 125.474 74.6504C125.063 74.8852 124.689 75.1791 124.363 75.5226C124.281 75.8785 124.238 76.2426 124.237 76.6079C124.229 77.5628 124.509 78.4978 125.041 79.2902C125.573 80.0827 126.331 80.6956 127.217 81.0485C128.103 81.4015 129.074 81.478 130.004 81.268C130.934 81.058 131.779 80.5713 132.428 79.8718Z" fill="#37474F"/>
<path d="M64.5734 82.6512L62.9043 85.9453L63.1748 86.0829L64.8439 82.7888L64.5734 82.6512Z" fill="#263238"/>
<path d="M61.4792 82.389L61.2246 82.5469L62.8526 85.1811L63.1072 85.0232L61.4792 82.389Z" fill="#263238"/>
<path d="M63.2885 82.0781V90.0149C63.287 90.0368 63.2796 90.0579 63.2671 90.0759C63.2546 90.094 63.2375 90.1083 63.2176 90.1175C63.1621 90.1459 63.1006 90.1607 63.0383 90.1607C62.976 90.1607 62.9145 90.1459 62.859 90.1175C62.8386 90.1085 62.8209 90.0943 62.8078 90.0763C62.7946 90.0583 62.7865 90.0371 62.7842 90.0149V82.0781H63.2885Z" fill="#263238"/>
<path d="M65.6009 83.2982C67.6332 83.2982 69.2808 81.6478 69.2808 79.612C69.2808 77.5761 67.6332 75.9258 65.6009 75.9258C63.5685 75.9258 61.9209 77.5761 61.9209 79.612C61.9209 81.6478 63.5685 83.2982 65.6009 83.2982Z" fill="#455A64"/>
<path d="M66.7561 78.6683C67.2289 77.1686 67.7332 76.5845 67.4141 76.4029C66.8046 76.057 66.1092 75.8925 65.4096 75.9288C64.71 75.965 64.0353 76.2006 63.4647 76.6078C62.8941 77.0149 62.4515 77.5768 62.1887 78.2272C61.9259 78.8777 61.8539 79.5898 61.9812 80.2799C62.1085 80.9699 62.4298 81.6092 62.9073 82.1226C63.3848 82.6361 63.9987 83.0023 64.6768 83.1784C65.355 83.3544 66.0692 83.3328 66.7355 83.1163C67.4019 82.8997 67.9927 82.4972 68.4385 81.9559C67.351 82.2756 66.1375 80.6101 66.7561 78.6683Z" fill="#37474F"/>
<path d="M59.8063 83.2425C61.2338 83.2425 62.391 82.0833 62.391 80.6535C62.391 79.2236 61.2338 78.0645 59.8063 78.0645C58.3789 78.0645 57.2217 79.2236 57.2217 80.6535C57.2217 82.0833 58.3789 83.2425 59.8063 83.2425Z" fill="#455A64"/>
<path d="M59.8063 78.0645C59.2637 78.0637 58.7345 78.2335 58.2933 78.5499C58.2224 80.1286 59.5659 81.6757 59.1916 82.1966C58.8173 82.7176 57.8914 82.3939 57.5684 81.9559C57.7963 82.3482 58.1232 82.6735 58.5163 82.8993C58.9094 83.1252 59.3548 83.2435 59.808 83.2425C60.2611 83.2414 60.706 83.1211 61.0981 82.8935C61.4901 82.666 61.8156 82.3391 62.0418 81.9458C62.268 81.5525 62.3869 81.1065 62.3868 80.6526C62.3866 80.1987 62.2674 79.7528 62.0409 79.3597C61.8145 78.9665 61.4888 78.6399 61.0966 78.4125C60.7044 78.1852 60.2594 78.0652 59.8063 78.0645Z" fill="#37474F"/>
<path d="M66.3923 81.2213C68.2449 79.3657 68.2449 76.357 66.3923 74.5013C64.5398 72.6456 61.5362 72.6456 59.6836 74.5013C57.8311 76.357 57.8311 79.3657 59.6836 81.2213C61.5362 83.077 64.5398 83.077 66.3923 81.2213Z" fill="#455A64"/>
<path d="M67.6542 78.9441C67.47 79.7062 67.0997 80.4105 66.5766 80.9939C66.0536 81.5773 65.3941 82.0214 64.6574 82.2865C63.9206 82.5516 63.1297 82.6293 62.3556 82.5126C61.5816 82.396 60.8485 82.0886 60.2223 81.6181C59.596 81.1477 59.0962 80.5288 58.7676 79.8171C58.4391 79.1053 58.2921 78.3231 58.3399 77.5404C58.3876 76.7577 58.6286 75.9992 59.0413 75.3328C59.4539 74.6665 60.0253 74.1132 60.7041 73.7227C60.2918 73.9555 59.9172 74.2495 59.593 74.5949C59.5106 74.9508 59.4683 75.3148 59.4669 75.6802C59.4597 76.6342 59.7403 77.5681 60.272 78.3597C60.8037 79.1512 61.5616 79.7634 62.4465 80.1162C63.3314 80.469 64.302 80.5458 65.2313 80.3367C66.1605 80.1275 67.005 79.6421 67.6542 78.9441Z" fill="#37474F"/>
<path d="M74.502 85.1363L104.753 102.628V75.9721L74.502 58.4805V85.1363Z" fill="#F0F0F0"/>
<path d="M96.1087 92.6322V107.63L65.8613 90.134V75.1406L96.1087 92.6322Z" fill="#F0F0F0"/>
<path d="M65.8613 80.1371L96.1087 97.6327V92.6322L65.8613 75.1406V80.1371Z" fill="#E0E0E0"/>
<path d="M74.502 63.4789L104.753 80.9706V75.9741L74.502 58.4785V63.4789Z" fill="#E0E0E0"/>
<path d="M104.754 75.971L124.919 64.3086V90.9644L104.754 102.627V75.971Z" fill="#FAFAFA"/>
<path d="M96.1094 92.6321L104.754 84.3047V102.629L96.1094 107.629V92.6321Z" fill="#FAFAFA"/>
<path d="M114.836 58.4785L104.754 75.9741L124.919 64.3117L114.836 58.4785Z" fill="#FAFAFA"/>
<path d="M103.311 78.4714L114.835 58.4776V57.2305L103.311 77.2243V78.4714Z" fill="#40B3B3"/>
<path opacity="0.1" d="M103.311 78.4714L114.835 58.4776V57.2305L103.311 77.2243V78.4714Z" fill="black"/>
<path d="M84.5852 39.7371L73.0627 59.7285L103.311 77.2221L114.834 57.2307L84.5852 39.7371Z" fill="#40B3B3"/>
<path d="M73.0645 59.7285L103.312 77.2241V78.4712L73.0645 60.9796V59.7285Z" fill="#40B3B3"/>
<path opacity="0.15" d="M73.0645 59.7285L103.312 77.2241V78.4712L73.0645 60.9796V59.7285Z" fill="black"/>
<path d="M114.836 57.2305L127.44 64.52L126.357 65.1435L114.836 58.4776V57.2305Z" fill="#40B3B3"/>
<path opacity="0.15" d="M114.836 57.2305L127.44 64.52L126.357 65.1435L114.836 58.4776V57.2305Z" fill="black"/>
<path d="M126.357 65.1413H124.919V64.3086L126.357 65.1413Z" fill="#40B3B3"/>
<path opacity="0.3" d="M126.357 65.1413H124.919V64.3086L126.357 65.1413Z" fill="black"/>
<path d="M79.1436 59.492V53.4931L82.5911 51.5L86.0267 57.4595V63.4781L79.1436 59.492Z" fill="#F0F0F0"/>
<path opacity="0.2" d="M82.5909 51.5006L78.3357 53.9594L77.792 53.6437L82.5909 50.8691V51.5006Z" fill="black"/>
<path d="M86.0264 63.4772L89.4661 57.502L91.2233 54.4473L86.0264 57.4586V63.4772Z" fill="#FAFAFA"/>
<path opacity="0.4" d="M78.3359 53.9579H79.1436V53.4922L78.3359 53.9579Z" fill="black"/>
<path d="M86.846 58.8809L82.5908 51.5006V50.8691L87.3779 59.1887L86.846 58.8809Z" fill="#40B3B3"/>
<path opacity="0.1" d="M86.846 58.8809L82.5908 51.5006V50.8691L87.3779 59.1887L86.846 58.8809Z" fill="black"/>
<path d="M87.3779 59.1868L82.5908 50.8672L87.5434 48.002L92.3305 56.3215L87.3779 59.1868Z" fill="#40B3B3"/>
<path opacity="0.3" d="M87.3779 59.1868L82.5908 50.8672L87.5434 48.002L92.3305 56.3215L87.3779 59.1868Z" fill="white"/>
<path d="M84.3078 56.495L80.8643 54.502V58.4802L84.3078 60.4733V56.495Z" fill="#455A64"/>
<path d="M81.2158 58.2768V54.7051L84.3087 56.4969V60.0646L81.2158 58.2768Z" fill="#E0E0E0"/>
<path d="M80.8643 58.4806L81.2149 58.2754L84.3078 60.0632V60.4737L80.8643 58.4806Z" fill="#37474F"/>
<path d="M93.5439 67.8221V61.8231L96.9954 59.8301L100.431 65.7895V71.8082L93.5439 67.8221Z" fill="#F0F0F0"/>
<path opacity="0.2" d="M96.9962 59.8307L92.741 62.2895L92.1934 61.9737L96.9962 59.1992V59.8307Z" fill="black"/>
<path d="M100.432 71.8073L103.867 65.8321L105.625 62.7773L100.432 65.7887V71.8073Z" fill="#FAFAFA"/>
<path opacity="0.4" d="M92.7402 62.2899H93.544V61.8242L92.7402 62.2899Z" fill="black"/>
<path d="M101.251 67.211L96.9961 59.8307V59.1992L101.779 67.5188L101.251 67.211Z" fill="#40B3B3"/>
<path opacity="0.1" d="M101.251 67.211L96.9961 59.8307V59.1992L101.779 67.5188L101.251 67.211Z" fill="black"/>
<path d="M101.779 67.5189L96.9962 59.1993L101.945 56.3301L106.732 64.6496L101.779 67.5189Z" fill="#40B3B3"/>
<path opacity="0.3" d="M101.779 67.5189L96.9962 59.1993L101.945 56.3301L106.732 64.6496L101.779 67.5189Z" fill="white"/>
<path d="M98.7092 64.8251L95.2656 62.8359V66.8142L98.7092 68.8072V64.8251Z" fill="#455A64"/>
<path d="M95.6211 66.6069V63.0352L98.7101 64.823V68.3947L95.6211 66.6069Z" fill="#E0E0E0"/>
<path d="M95.2656 66.8146L95.6202 66.6094L98.7092 68.3972V68.8077L95.2656 66.8146Z" fill="#37474F"/>
<path d="M74.5024 65.6836L104.754 83.1752V84.304L94.6712 95.1336L64.4199 77.6381V76.5132L74.5024 65.6836Z" fill="#40B3B3"/>
<path d="M74.5024 65.6836L104.754 83.1752L94.6712 94.0049L64.4199 76.5132L74.5024 65.6836Z" fill="#40B3B3"/>
<path opacity="0.1" d="M94.6709 94.0054V95.1342L104.753 84.3045V83.1758L94.6709 94.0054Z" fill="black"/>
<path opacity="0.15" d="M94.6712 95.1321L64.4199 77.6365V76.5117L94.6712 94.0033V95.1321Z" fill="black"/>
<path d="M77.3858 85.1344L70.1835 80.9707V88.6351L77.3858 92.7989V85.1344Z" fill="#263238"/>
<path d="M70.625 88.3779V81.2266L77.386 85.1377V92.2851L70.625 88.3779Z" fill="#FAFAFA"/>
<path d="M70.625 81.2266V82.896L77.386 86.8032V85.1338L70.625 81.2266Z" fill="#F0F0F0"/>
<path d="M70.1835 88.6335L70.6247 88.377L77.3858 92.2842V92.7972L70.1835 88.6335Z" fill="#37474F"/>
<path d="M70.1836 84.8034L70.6249 84.5469L77.3859 88.4541V88.9671L70.1836 84.8034Z" fill="#37474F"/>
<path d="M73.6357 90.6293L74.077 90.8858V83.2214L73.6357 82.9648V90.6293Z" fill="#37474F"/>
<path d="M90.3478 92.6325L83.1455 88.4688V96.1332L90.3478 100.297V92.6325Z" fill="#263238"/>
<path d="M83.5879 95.8779V88.7266L90.3489 92.6338V99.7851L83.5879 95.8779Z" fill="#FAFAFA"/>
<path d="M83.5879 88.7266V90.3921L90.3489 94.3032V92.6338L83.5879 88.7266Z" fill="#F0F0F0"/>
<path d="M83.1455 96.1335L83.5868 95.877L90.3478 99.7842V100.297L83.1455 96.1335Z" fill="#37474F"/>
<path d="M83.1455 92.2995L83.5868 92.043L90.3478 95.9502V96.4632L83.1455 92.2995Z" fill="#37474F"/>
<path d="M86.5986 98.1293L87.0399 98.3858V90.7214L86.5986 90.4648V98.1293Z" fill="#37474F"/>
<path d="M100.432 93.4685L107.634 89.3008V96.9652L100.432 101.129V93.4685Z" fill="#263238"/>
<path d="M107.193 96.708V89.5566L100.432 93.4678V100.615L107.193 96.708Z" fill="#E6E6E6"/>
<path d="M107.193 89.5566V90.2907L100.432 94.1979V93.4678L107.193 89.5566Z" fill="#E0E0E0"/>
<path d="M107.634 96.9636L107.193 96.707L100.432 100.614V101.127L107.634 96.9636Z" fill="#37474F"/>
<path d="M107.634 93.1335L107.193 92.877L100.432 96.7842V97.2972L107.634 93.1335Z" fill="#37474F"/>
<path d="M104.183 98.9632L103.741 99.2198V91.5554L104.183 91.2988V98.9632Z" fill="#37474F"/>
<path d="M111.821 68.6637L119.024 64.5V72.1644L111.821 76.3282V68.6637Z" fill="#263238"/>
<path d="M118.582 71.9092V64.7578L111.821 68.665V75.8164L118.582 71.9092Z" fill="#E6E6E6"/>
<path d="M118.582 64.7578V65.4919L111.821 69.3991V68.665L118.582 64.7578Z" fill="#E0E0E0"/>
<path d="M119.024 72.1647L118.582 71.9082L111.821 75.8154V76.3285L119.024 72.1647Z" fill="#37474F"/>
<path d="M119.024 68.3307L118.582 68.0742L111.821 71.9854V72.4984L119.024 68.3307Z" fill="#37474F"/>
<path d="M115.572 74.1605L115.131 74.417V66.7526L115.572 66.4961V74.1605Z" fill="#37474F"/>
<path d="M111.955 98.4663V85.1384L119.158 80.9707V94.3025L111.955 98.4663Z" fill="#37474F"/>
<path d="M118.893 94.1016V81.125L111.955 85.1388V98.1154L118.893 94.1016Z" fill="#455A64"/>
<path d="M119.158 80.9707L118.894 81.1246V94.1013L119.158 94.3025V80.9707Z" fill="#263238"/>
</svg>
