<svg width="85" height="85" viewBox="0 0 85 85" fill="none" xmlns="http://www.w3.org/2000/svg">
<path d="M85 42.498C85 45.2155 82.8137 47.4018 80.0962 47.4018H47.4038V80.0941C47.4038 82.8014 45.2073 85 42.5 85C39.7927 85 37.5962 82.8117 37.5962 80.0941V47.4018H4.90385C2.19651 47.4018 0 45.2073 0 42.5C0 39.8008 2.19651 37.5941 4.90385 37.5941H37.5962V4.9018C37.5962 2.19447 39.7927 0 42.5 0C45.2073 0 47.4038 2.19447 47.4038 4.9018V37.5941H80.0962C82.8137 37.5941 85 39.8008 85 42.498Z" fill="#E5E5E5"/>
</svg>
